<?xml version="1.0" encoding="UTF-8"?>
<svg version="1.1" xmlns="http://www.w3.org/2000/svg" width="239" height="230">
<path d="M0 0 C78.87 0 157.74 0 239 0 C239 75.9 239 151.8 239 230 C160.13 230 81.26 230 0 230 C0 154.1 0 78.2 0 0 Z " fill="#027F7A" transform="translate(0,0)"/>
<path d="M0 0 C2.68887808 4.03331713 2.56181004 7.26234819 2 12 C0.625 14.6875 0.625 14.6875 -1 17 C-1.4640625 18.5159375 -1.4640625 18.5159375 -1.9375 20.0625 C-3.14780545 23.40863859 -4.46783753 24.53817537 -7 27 C-8.56454081 29.36118363 -10.06355216 31.75173034 -11.53515625 34.171875 C-12.01855469 34.77515625 -12.50195312 35.3784375 -13 36 C-13.99 36 -14.98 36 -16 36 C-15.40881286 31.88173028 -13.06268076 28.96868242 -10.6875 25.6875 C-9.86822239 24.5219348 -9.05049414 23.35527891 -8.234375 22.1875 C-7.49703125 21.135625 -6.7596875 20.08375 -6 19 C-2.40531039 13.85391804 -1.46256226 10.23427777 -2 4 C-3.76595555 2.23404445 -6.16153985 2.7434733 -8.5625 2.6875 C-19.61838354 2.77273258 -30.37104465 5.54964791 -40 11 C-41.3303125 11.5259375 -41.3303125 11.5259375 -42.6875 12.0625 C-45.12919826 12.98146893 -45.12919826 12.98146893 -47.6875 14.625 C-50 16 -50 16 -52 16 C-52 16.66 -52 17.32 -52 18 C-53.35268136 19.11691991 -54.75909557 20.16920843 -56.1875 21.1875 C-61.41190045 25.1366531 -65.76248318 29.307307 -67 36 C-67.28903059 40.75200299 -67.19494132 45.36960238 -66 50 C-65.34 50 -64.68 50 -64 50 C-63.4225 51.03125 -62.845 52.0625 -62.25 53.125 C-59.29060988 58.28309193 -56.28291128 62.84687391 -52 67 C-50.29660733 68.97183564 -48.65028701 70.98298254 -47 73 C-42.99822092 72.38434168 -40.30464252 70.2270417 -37 68 C-36.34 68 -35.68 68 -35 68 C-35 67.34 -35 66.68 -35 66 C-32.525 65.505 -32.525 65.505 -30 65 C-30.00523682 64.39937744 -30.01047363 63.79875488 -30.01586914 63.17993164 C-30.03658014 60.47413162 -30.04964125 57.76834823 -30.0625 55.0625 C-30.07087891 54.11697266 -30.07925781 53.17144531 -30.08789062 52.19726562 C-30.09111328 51.29814453 -30.09433594 50.39902344 -30.09765625 49.47265625 C-30.10289307 48.64000244 -30.10812988 47.80734863 -30.11352539 46.94946289 C-30 45 -30 45 -29 44 C-27.02 44 -25.04 44 -23 44 C-23 55.55 -23 67.1 -23 79 C-20.69 78.01 -18.38 77.02 -16 76 C-10.42061911 75.06589551 -4.78683478 75.49433977 0.11621094 78.46948242 C4.60051817 82.11283676 6.7100371 87.63158449 7.39819336 93.25244141 C7.4898474 96.72337259 7.4382128 100.15532686 7.3125 103.625 C7.28994141 104.81996094 7.26738281 106.01492187 7.24414062 107.24609375 C7.1857543 110.16540989 7.10391701 113.08201029 7 116 C6.01 116 5.02 116 4 116 C3.970271 114.80455566 3.970271 114.80455566 3.93994141 113.58496094 C3.84466752 109.97297528 3.73499693 106.36156601 3.625 102.75 C3.5940625 101.49574219 3.563125 100.24148437 3.53125 98.94921875 C3.49257812 97.74394531 3.45390625 96.53867188 3.4140625 95.296875 C3.36693115 93.63156738 3.36693115 93.63156738 3.31884766 91.93261719 C3.00589634 89.05423191 2.60140496 87.38696175 1 85 C-0.485 84.01 -0.485 84.01 -2 83 C-2 82.34 -2 81.68 -2 81 C-10.21402978 80.15525828 -10.21402978 80.15525828 -18.0078125 82.0078125 C-21.75731524 85.75731524 -22.13717564 89.71765733 -22.31640625 94.76171875 C-22.37924805 96.43911133 -22.37924805 96.43911133 -22.44335938 98.15039062 C-22.48267578 99.31763672 -22.52199219 100.48488281 -22.5625 101.6875 C-22.62727539 103.45577148 -22.62727539 103.45577148 -22.69335938 105.25976562 C-22.79951176 108.17305883 -22.90156242 111.08643757 -23 114 C-27.75 115.125 -27.75 115.125 -30 114 C-30 99.15 -30 84.3 -30 69 C-36.73818398 71.30816481 -36.73818398 71.30816481 -42 75 C-41.62327143 80.0230476 -39.88138664 83.17792004 -37.15625 87.265625 C-33.94058978 92.08911533 -34.03072639 97.39507 -35 103 C-38.93919629 109.2187312 -45.84123521 113.93818771 -52.9375 115.75 C-53.618125 115.8325 -54.29875 115.915 -55 116 C-55 116.66 -55 117.32 -55 118 C-57.57284138 119.28642069 -59.56528953 119.24002723 -62.4375 119.3125 C-63.40558594 119.34988281 -64.37367187 119.38726562 -65.37109375 119.42578125 C-68 119 -68 119 -69.8125 117.19921875 C-71.68927198 113.72348644 -71.72962951 110.77799689 -71 107 C-67.91186126 98.22516674 -62.50160302 91.61948919 -56.390625 84.8125 C-54.45445223 82.53464968 -53.12925629 80.73122453 -52 78 C-53.485 77.505 -53.485 77.505 -55 77 C-56.65745826 75.07463996 -58.18117043 73.16280539 -59.6875 71.125 C-60.12376709 70.54435791 -60.56003418 69.96371582 -61.00952148 69.36547852 C-61.90723601 68.16727378 -62.80150733 66.96648191 -63.69238281 65.76318359 C-64.91722179 64.11161767 -66.15729982 62.47138411 -67.3984375 60.83203125 C-73.34650228 52.87622619 -73.34650228 52.87622619 -74 49 C-74.66 49 -75.32 49 -76 49 C-77.39325811 46.21348377 -77.20741683 43.85857126 -77.25 40.75 C-77.27578125 39.63109375 -77.3015625 38.5121875 -77.328125 37.359375 C-76.72178496 31.15160795 -73.62679658 27.23445228 -69.5 22.75 C-68.7265625 21.89921875 -67.953125 21.0484375 -67.15625 20.171875 C-65 18 -65 18 -62 16 C-61.01 16 -60.02 16 -59 16 C-59 15.34 -59 14.68 -59 14 C-58.1028125 13.5978125 -58.1028125 13.5978125 -57.1875 13.1875 C-54.99246468 12.14828757 -54.99246468 12.14828757 -53.6640625 10.55078125 C-51.6373396 8.66202775 -49.78054871 7.95596266 -47.1875 7 C-44.3527928 5.92575217 -41.74390375 4.86377859 -39.0625 3.4375 C-28.37530153 -1.5789401 -11.46205367 -4.20899646 0 0 Z " fill="#DFF4F3" transform="translate(95,53)"/>
<path d="M0 0 C5.28 0 10.56 0 16 0 C16 0.66 16 1.32 16 2 C17.98 2.66 19.96 3.32 22 4 C22 5.32 22 6.64 22 8 C22.66 8 23.32 8 24 8 C24.33 7.01 24.66 6.02 25 5 C26.11375 4.87625 27.2275 4.7525 28.375 4.625 C32.03103677 4.3534187 32.03103677 4.3534187 34 2 C40.04557403 1.211048 46.23880345 1.04143726 51.40234375 4.59375 C57.28952482 9.77562087 60.71363587 13.77612903 61.25 21.6875 C61.12429392 27.31284708 60.26388006 32.70181872 56.1953125 36.83203125 C50.17281045 41.50231114 45.38233099 43.26882862 37.6875 43.125 C35.80611328 43.09792969 35.80611328 43.09792969 33.88671875 43.0703125 C32.45779297 43.03550781 32.45779297 43.03550781 31 43 C30.67 42.34 30.34 41.68 30 41 C28.02111039 40.27306096 26.02045442 39.60183749 24 39 C24 38.34 24 37.68 24 37 C23.34 37 22.68 37 22 37 C19.09229046 31.31432124 18.6135149 26.89430777 18.8125 20.5625 C18.83280273 19.32209961 18.83280273 19.32209961 18.85351562 18.05664062 C18.88853008 16.0374736 18.94232438 14.01864682 19 12 C18.030625 11.87625 17.06125 11.7525 16.0625 11.625 C15.051875 11.41875 14.04125 11.2125 13 11 C12.67 10.34 12.34 9.68 12 9 C11.01 9.33 10.02 9.66 9 10 C8.67 20.56 8.34 31.12 8 42 C7.01 42 6.02 42 5 42 C5 42.66 5 43.32 5 44 C1.66666667 44 -1.66666667 44 -5 44 C-5.33 42.02 -5.66 40.04 -6 38 C-4.68 37.34 -3.36 36.68 -2 36 C-2.01047363 35.05157227 -2.02094727 34.10314453 -2.03173828 33.12597656 C-2.06586708 29.59991009 -2.09092168 26.07401971 -2.10986328 22.54785156 C-2.11990744 21.02308377 -2.13354531 19.49833516 -2.15087891 17.97363281 C-2.17519738 15.77924862 -2.18649889 13.58511958 -2.1953125 11.390625 C-2.20578613 10.07094727 -2.21625977 8.75126953 -2.22705078 7.39160156 C-2 4 -2 4 0 0 Z " fill="#25827C" transform="translate(153,126)"/>
<path d="M0 0 C1.8125 1.5625 1.8125 1.5625 3 3 C4.32 1.68 5.64 0.36 7 -1 C15.3 1.23461538 15.3 1.23461538 18 3 C19.44057853 7.3217356 19.97759849 11.9499842 17.9855957 16.12719727 C17.66034912 16.74522217 17.33510254 17.36324707 17 18 C12.56271849 18.11586755 8.12582409 18.18714058 3.6875 18.25 C2.42486328 18.28351563 1.16222656 18.31703125 -0.13867188 18.3515625 C-1.95141602 18.37089844 -1.95141602 18.37089844 -3.80078125 18.390625 C-5.47394409 18.4220459 -5.47394409 18.4220459 -7.1809082 18.45410156 C-10 18 -10 18 -11.88745117 16.10058594 C-13 14 -13 14 -13 12 C-13.99 12 -14.98 12 -16 12 C-16.433125 12.928125 -16.433125 12.928125 -16.875 13.875 C-18 16 -18 16 -20 18 C-22.3828125 18.1953125 -22.3828125 18.1953125 -25.125 18.125 C-26.03507812 18.10695312 -26.94515625 18.08890625 -27.8828125 18.0703125 C-28.58148438 18.04710937 -29.28015625 18.02390625 -30 18 C-30.33 17.34 -30.66 16.68 -31 16 C-33.11846285 15.31270746 -33.11846285 15.31270746 -35.5625 14.875 C-36.80193359 14.62363281 -36.80193359 14.62363281 -38.06640625 14.3671875 C-38.70449219 14.24601563 -39.34257812 14.12484375 -40 14 C-40 15.65 -40 17.3 -40 19 C-44 19 -44 19 -45.734375 17.9140625 C-47.61215717 15.07420675 -47.32457964 12.73854186 -47.25 9.375 C-47.23453125 8.20710937 -47.2190625 7.03921875 -47.203125 5.8359375 C-47 3 -47 3 -46 2 C-43.30548195 1.95150474 -40.63097186 1.95865949 -37.9375 2 C-31.71659663 2.04359428 -25.52422815 1.9812707 -19.3125 1.625 C-17.45044922 1.52058594 -17.45044922 1.52058594 -15.55078125 1.4140625 C-0.83592401 -0.30186145 -0.83592401 -0.30186145 0 0 Z " fill="#2C8B87" transform="translate(174,182)"/>
<path d="M0 0 C5.18324544 3.21989489 8.98895962 7.26014826 11.3203125 12.94140625 C11.7578125 16.31640625 11.7578125 16.31640625 11.3203125 18.94140625 C9.3203125 20.94140625 9.3203125 20.94140625 6.15576172 21.16845703 C4.81213287 21.16814014 3.4684784 21.15682806 2.125 21.13671875 C1.41755646 21.13388885 0.71011292 21.13105896 -0.01876831 21.12814331 C-2.2809126 21.11693762 -4.54266265 21.09183304 -6.8046875 21.06640625 C-8.33723387 21.05637692 -9.86978644 21.04725099 -11.40234375 21.0390625 C-15.16161051 21.01699711 -18.92058214 20.98246521 -22.6796875 20.94140625 C-20.80283218 27.73859306 -19.31602412 31.26556286 -13.08984375 34.91015625 C-9.23575347 36.55923216 -6.84303211 36.56590794 -2.6796875 35.94140625 C0.77614901 34.49477701 2.69141828 32.60226309 5.0078125 29.75390625 C5.7709375 28.82578125 6.5340625 27.89765625 7.3203125 26.94140625 C7.9803125 26.94140625 8.6403125 26.94140625 9.3203125 26.94140625 C8.8451584 31.21779319 6.44147515 33.17492117 3.3203125 35.94140625 C-2.58199082 39.78476655 -6.65987051 40.56910971 -13.6796875 39.94140625 C-16.23242262 39.16703157 -18.30068427 38.18262533 -20.6796875 36.94140625 C-20.6796875 36.28140625 -20.6796875 35.62140625 -20.6796875 34.94140625 C-21.5459375 34.66296875 -21.5459375 34.66296875 -22.4296875 34.37890625 C-25.81639392 32.21517715 -27.45527462 29.68371432 -28.6796875 25.94140625 C-29.43660949 19.25387568 -29.82030979 12.55128161 -25.6796875 6.94140625 C-18.73788155 -0.91940947 -10.45305607 -4.12941428 0 0 Z " fill="#D9F4F5" transform="translate(135.6796875,129.05859375)"/>
<path d="M0 0 C0.9590625 0.00644531 1.918125 0.01289063 2.90625 0.01953125 C5.5 0.1875 5.5 0.1875 8.5 1.1875 C8.5 1.8475 8.5 2.5075 8.5 3.1875 C9.3971875 3.55875 9.3971875 3.55875 10.3125 3.9375 C12.95796123 5.44919213 13.95910509 6.54720254 15.5 9.1875 C15.93359375 12.6484375 15.93359375 12.6484375 15.9375 16.5625 C15.96650391 18.49222656 15.96650391 18.49222656 15.99609375 20.4609375 C15.42657151 24.73908092 14.19039342 26.85653672 11.5 30.1875 C6.99713272 33.48228094 2.5631195 33.7539383 -2.86328125 33.61328125 C-7.06483677 32.93480784 -8.74724973 31.3866422 -11.5 28.1875 C-11.5 27.1975 -11.5 26.2075 -11.5 25.1875 C-12.49 24.8575 -13.48 24.5275 -14.5 24.1875 C-15.53332738 9.31906719 -15.53332738 9.31906719 -11.6875 4.875 C-7.93035199 1.3404978 -5.19663341 -0.07683195 0 0 Z " fill="#047F79" transform="translate(194.5,131.8125)"/>
<path d="M0 0 C1.98 0 3.96 0 6 0 C6 11.55 6 23.1 6 35 C8.31 34.01 10.62 33.02 13 32 C18.57938089 31.06589551 24.21316522 31.49433977 29.11621094 34.46948242 C33.60051817 38.11283676 35.7100371 43.63158449 36.39819336 49.25244141 C36.4898474 52.72337259 36.4382128 56.15532686 36.3125 59.625 C36.28994141 60.81996094 36.26738281 62.01492187 36.24414062 63.24609375 C36.1857543 66.16540989 36.10391701 69.08201029 36 72 C35.01 72 34.02 72 33 72 C32.970271 70.80455566 32.970271 70.80455566 32.93994141 69.58496094 C32.84466752 65.97297528 32.73499693 62.36156601 32.625 58.75 C32.5940625 57.49574219 32.563125 56.24148437 32.53125 54.94921875 C32.47324219 53.14130859 32.47324219 53.14130859 32.4140625 51.296875 C32.3826416 50.18666992 32.3512207 49.07646484 32.31884766 47.93261719 C32.00589634 45.05423191 31.60140496 43.38696175 30 41 C29.01 40.34 28.02 39.68 27 39 C27 38.34 27 37.68 27 37 C18.78597022 36.15525828 18.78597022 36.15525828 10.9921875 38.0078125 C7.24268476 41.75731524 6.86282436 45.71765733 6.68359375 50.76171875 C6.64169922 51.87998047 6.59980469 52.99824219 6.55664062 54.15039062 C6.51732422 55.31763672 6.47800781 56.48488281 6.4375 57.6875 C6.39431641 58.86634766 6.35113281 60.04519531 6.30664062 61.25976562 C6.20048824 64.17305883 6.09843758 67.08643757 6 70 C1.25 71.125 1.25 71.125 -1 70 C-1 55.15 -1 40.3 -1 25 C-9.03660072 27.52224169 -9.03660072 27.52224169 -14.25 33.1875 C-14.4975 33.785625 -14.745 34.38375 -15 35 C-15.12375 34.360625 -15.2475 33.72125 -15.375 33.0625 C-15.58125 32.381875 -15.7875 31.70125 -16 31 C-16.66 30.67 -17.32 30.34 -18 30 C-16.33333333 29 -14.66666667 28 -13 27 C-12.113125 26.443125 -11.22625 25.88625 -10.3125 25.3125 C-8 24 -8 24 -6 24 C-6 23.34 -6 22.68 -6 22 C-4.35 21.67 -2.7 21.34 -1 21 C-1.00785522 20.09906616 -1.00785522 20.09906616 -1.01586914 19.17993164 C-1.03658014 16.47413162 -1.04964125 13.76834823 -1.0625 11.0625 C-1.07087891 10.11697266 -1.07925781 9.17144531 -1.08789062 8.19726562 C-1.09272461 6.84858398 -1.09272461 6.84858398 -1.09765625 5.47265625 C-1.10551147 4.22367554 -1.10551147 4.22367554 -1.11352539 2.94946289 C-1 1 -1 1 0 0 Z " fill="#F1FEFE" transform="translate(66,97)"/>
<path d="M0 0 C0.33 0 0.66 0 1 0 C0.95875 1.093125 0.9175 2.18625 0.875 3.3125 C0.67925334 7.08892229 0.67925334 7.08892229 3 10 C3.83160083 15.07276507 3.83160083 15.07276507 3 18 C0.63572393 20.50994237 -2.08208968 22.19494234 -5 24 C-5.5878125 24.5465625 -6.175625 25.093125 -6.78125 25.65625 C-10.00301445 27.60745946 -13.10733995 27.32177575 -16.75 27.1875 C-17.44738281 27.17396484 -18.14476562 27.16042969 -18.86328125 27.14648438 C-20.57585541 27.1112945 -22.28802941 27.05749155 -24 27 C-24 26.67 -24 26.34 -24 26 C-23.41992188 25.96261719 -22.83984375 25.92523438 -22.2421875 25.88671875 C-14.32901945 25.22075906 -9.3540838 23.09770655 -4 17 C-2.70480005 14.83379456 -2.70480005 14.83379456 -2 13 C-4.50208949 14.9460696 -6.88193459 16.88193459 -9.125 19.125 C-11.94407283 21.94407283 -13.63345472 22.94944203 -17.625 23.5 C-23.08735134 23.35864525 -27.02394545 20.55582115 -31 17 C-33.51249816 13.19318461 -34 11.5859765 -34 7 C-23.44 6.67 -12.88 6.34 -2 6 C-1.34 4.02 -0.68 2.04 0 0 Z " fill="#087D77" transform="translate(147,143)"/>
<path d="M0 0 C5.14082349 2.62286913 10.73158317 7.87705407 12.58984375 13.3984375 C13.65438242 19.98040219 13.2204999 26.49626278 9.91015625 32.37890625 C4.70643579 37.4655696 0.46154495 39.53659311 -6.77734375 39.62890625 C-16.75362112 39.47620813 -16.75362112 39.47620813 -21.08984375 36.37890625 C-25.51791965 31.29189049 -28.51794632 26.42031206 -28.71484375 19.56640625 C-28.20584886 12.67539851 -25.58143475 8.53040224 -20.78515625 3.7734375 C-14.56952558 -1.33941998 -7.77104891 -2.30952669 0 0 Z M-18.08984375 8.37890625 C-18.90388672 9.21421875 -18.90388672 9.21421875 -19.734375 10.06640625 C-21.65890376 13.34975214 -21.41321983 16.44283212 -21.27734375 20.12890625 C-21.26380859 20.82628906 -21.25027344 21.52367187 -21.23632812 22.2421875 C-21.20113825 23.95476166 -21.1473353 25.66693566 -21.08984375 27.37890625 C-20.09984375 27.70890625 -19.10984375 28.03890625 -18.08984375 28.37890625 C-17.90421875 29.27609375 -17.90421875 29.27609375 -17.71484375 30.19140625 C-16.71228828 33.70035038 -15.26176706 34.6026292 -12.08984375 36.37890625 C-5.96524377 37.22721462 -0.21703662 37.13051079 4.91015625 33.37890625 C9.5423543 27.60568883 9.5515717 23.08918671 9.375 15.90625 C8.74166564 11.10035988 7.67736164 9.33885335 3.91015625 6.37890625 C3.25015625 6.37890625 2.59015625 6.37890625 1.91015625 6.37890625 C1.91015625 5.71890625 1.91015625 5.05890625 1.91015625 4.37890625 C-5.90103017 1.77517744 -12.50586663 2.23653141 -18.08984375 8.37890625 Z " fill="#E0F7F6" transform="translate(201.08984375,128.62109375)"/>
<path d="M0 0 C2.87582709 1.27748517 3.9166042 1.87788473 5.75 4.5625 C7.32264511 8.88727404 7.85371162 12.45477612 7 17 C4.97657228 21.16729756 2.02124328 24.64271946 -2 27 C-2.66 27 -3.32 27 -4 27 C-4 27.66 -4 28.32 -4 29 C-7.16240582 31.10827055 -8.50657469 31.33817465 -12.1875 31.625 C-13.08855469 31.69976562 -13.98960938 31.77453125 -14.91796875 31.8515625 C-15.60503906 31.90054688 -16.29210937 31.94953125 -17 32 C-17.19499267 19.40904473 -10.02433933 10.58009986 -1.72265625 1.765625 C-1.15417969 1.18296875 -0.58570312 0.6003125 0 0 Z " fill="#057F78" transform="translate(44,136)"/>
<path d="M0 0 C0 14.85 0 29.7 0 45 C1.98 45 3.96 45 6 45 C6.33 36.75 6.66 28.5 7 20 C7.33 20 7.66 20 8 20 C8.19581346 24.47884439 8.3802636 28.95808426 8.5625 33.4375 C8.64661133 35.3565918 8.64661133 35.3565918 8.73242188 37.31445312 C8.78076172 38.52939453 8.82910156 39.74433594 8.87890625 40.99609375 C8.9260376 42.12200928 8.97316895 43.2479248 9.02172852 44.40795898 C9 47 9 47 8 48 C4.66381769 48.14257189 1.34024394 48.04228157 -2 48 C-2.33 44.37 -2.66 40.74 -3 37 C-3.66644531 37.61488281 -4.33289063 38.22976562 -5.01953125 38.86328125 C-11.39198135 44.4514298 -16.61113885 47.58833478 -25 49 C-25 48.34 -25 47.68 -25 47 C-24.46632812 46.81566406 -23.93265625 46.63132813 -23.3828125 46.44140625 C-16.48716781 43.7571155 -10.43241137 40.02951506 -6 34 C-4.30164008 27.80016186 -5.36727155 22.52587763 -8.375 16.9375 C-9.22236371 15.60699032 -10.09485188 14.29189323 -11 13 C-13 10 -13 10 -13.125 7.625 C-10.83010106 2.2702358 -5.56759715 0 0 0 Z " fill="#25837F" transform="translate(65,122)"/>
<path d="M0 0 C3.93103743 1.88566952 6.83744407 4.27399672 9.2734375 7.890625 C10 10 10 10 9 15 C-0.9 15 -10.8 15 -21 15 C-20 8 -20 8 -18 5 C-17.34 5 -16.68 5 -16 5 C-15.566875 4.0409375 -15.566875 4.0409375 -15.125 3.0625 C-12.36939175 -1.98944847 -4.95719297 -0.66302456 0 0 Z " fill="#067E78" transform="translate(134,132)"/>
<path d="M0 0 C2 3 2 3 2 5 C3.11375 4.505 4.2275 4.01 5.375 3.5 C11.67202913 1.17477193 18.00884367 0.87015728 24.3125 3.375 C29.2083135 6.34535213 31.21247336 10.68385497 33 16 C33.55938333 20.56904028 33.4789474 25.03105185 33.3125 29.625 C33.28994141 30.81996094 33.26738281 32.01492187 33.24414062 33.24609375 C33.1857543 36.16540989 33.10391701 39.08201029 33 42 C32.01 42 31.02 42 30 42 C29.98018066 41.20303711 29.96036133 40.40607422 29.93994141 39.58496094 C29.84466752 35.97297528 29.73499693 32.36156601 29.625 28.75 C29.5940625 27.49574219 29.563125 26.24148437 29.53125 24.94921875 C29.49257812 23.74394531 29.45390625 22.53867188 29.4140625 21.296875 C29.3826416 20.18666992 29.3512207 19.07646484 29.31884766 17.93261719 C29.00589634 15.05423191 28.60140496 13.38696175 27 11 C26.01 10.34 25.02 9.68 24 9 C24 8.34 24 7.68 24 7 C15.78597022 6.15525828 15.78597022 6.15525828 7.9921875 8.0078125 C4.24268476 11.75731524 3.86282436 15.71765733 3.68359375 20.76171875 C3.64169922 21.87998047 3.59980469 22.99824219 3.55664062 24.15039062 C3.51732422 25.31763672 3.47800781 26.48488281 3.4375 27.6875 C3.37272461 29.45577148 3.37272461 29.45577148 3.30664062 31.25976562 C3.20048824 34.17305883 3.09843758 37.08643757 3 40 C1.68 39.67 0.36 39.34 -1 39 C-1.02464849 33.60653012 -1.04283531 28.21309275 -1.05493164 22.81958008 C-1.05997231 20.98331125 -1.06680477 19.14704646 -1.07543945 17.31079102 C-1.08751672 14.67723599 -1.09323081 12.04373384 -1.09765625 9.41015625 C-1.10281754 8.58411392 -1.10797882 7.75807159 -1.11329651 6.90699768 C-1.11349205 4.93763632 -1.06204152 2.96838386 -1 1 C-0.67 0.67 -0.34 0.34 0 0 Z " fill="#F5FDFD" transform="translate(69,127)"/>
<path d="M0 0 C0.33 0.99 0.66 1.98 1 3 C1.66 3.33 2.32 3.66 3 4 C2.030625 4.70125 1.06125 5.4025 0.0625 6.125 C-8.87086341 13.83935048 -14.1645027 24.48067211 -16 36 C-14.39536551 35.68991116 -12.79130769 35.37683713 -11.1875 35.0625 C-10.29417969 34.88847656 -9.40085937 34.71445313 -8.48046875 34.53515625 C-5.88602829 34.02258847 -5.88602829 34.02258847 -3 33 C-3 32.34 -3 31.68 -3 31 C-1.57421875 29.88671875 -1.57421875 29.88671875 0.3125 28.6875 C3.53946521 26.43840304 5.47407642 24.73003542 7 21 C7.50979068 18.00687255 7.80861814 15.02911286 8 12 C8.33 12 8.66 12 9 12 C9.02712153 13.916588 9.04645097 15.8332873 9.0625 17.75 C9.07410156 18.81734375 9.08570312 19.8846875 9.09765625 20.984375 C9.01510087 23.53368501 8.74617558 25.57933591 8 28 C8.66 28 9.32 28 10 28 C10.66 26.68 11.32 25.36 12 24 C12.66 24 13.32 24 14 24 C14.09087891 22.98679688 14.09087891 22.98679688 14.18359375 21.953125 C14.26738281 21.06109375 14.35117187 20.1690625 14.4375 19.25 C14.51871094 18.36828125 14.59992187 17.4865625 14.68359375 16.578125 C14.96238465 14.30649548 15.38790577 12.20148177 16 10 C18.15284195 14.3056839 17.80241611 19.35994163 17 24 C13.06080371 30.2187312 6.15876479 34.93818771 -0.9375 36.75 C-1.618125 36.8325 -2.29875 36.915 -3 37 C-3 37.66 -3 38.32 -3 39 C-5.57284138 40.28642069 -7.56528953 40.24002723 -10.4375 40.3125 C-11.40558594 40.34988281 -12.37367187 40.38726562 -13.37109375 40.42578125 C-16 40 -16 40 -17.8125 38.19921875 C-19.68927198 34.72348644 -19.72962951 31.77799689 -19 28 C-15.91239625 19.22668691 -10.48450978 12.5455045 -4.390625 5.71484375 C-1.93729302 3.05064693 -1.93729302 3.05064693 0 0 Z " fill="#CBEAEB" transform="translate(43,132)"/>
<path d="M0 0 C4.95 0 9.9 0 15 0 C19 4 19 4 19.25 6.75 C19.1675 7.4925 19.085 8.235 19 9 C17.0625 8.6875 17.0625 8.6875 15 8 C14.67 7.01 14.34 6.02 14 5 C11.69 4.67 9.38 4.34 7 4 C6.96241577 5.58252563 6.96241577 5.58252563 6.92407227 7.19702148 C6.83015891 11.09770628 6.72989966 14.99820625 6.62768555 18.89868164 C6.58427561 20.58939299 6.54260511 22.28014991 6.50268555 23.97094727 C6.44512906 26.39613606 6.38139351 28.82109415 6.31640625 31.24609375 C6.29969376 32.00651474 6.28298126 32.76693573 6.26576233 33.55039978 C6.11387171 38.88612829 6.11387171 38.88612829 5 40 C3.35 40 1.7 40 0 40 C0 26.8 0 13.6 0 0 Z " fill="#F6FDFE" transform="translate(153,128)"/>
<path d="M0 0 C3.31562557 0.55260426 6.15062207 1.16825705 9 3 C9.33 3.99 9.66 4.98 10 6 C10.804375 6.804375 11.60875 7.60875 12.4375 8.4375 C16.22365486 12.22365486 17.25047815 15.14109921 17.75 20.4375 C17.89695312 21.82775391 17.89695312 21.82775391 18.046875 23.24609375 C17.97474831 27.48353656 16.7498884 30.13294154 14 33.3125 C12 35 12 35 10 35 C10.33 29.72 10.66 24.44 11 19 C10.34 19 9.68 19 9 19 C5 12.25 5 12.25 5 10 C4.34 10 3.68 10 3 10 C2.49818809 8.52144705 1.99859924 7.04213942 1.5 5.5625 C1.2215625 4.73878906 0.943125 3.91507813 0.65625 3.06640625 C0 1 0 1 0 0 Z " fill="#F1FBFB" transform="translate(41,125)"/>
<path d="M0 0 C7.99180328 -0.6147541 7.99180328 -0.6147541 11.5625 1.5625 C13.53303623 4.90384403 13.40928874 7.17997175 13 11 C11.98263229 13.76142665 11.63829259 14.68085371 9 16 C5.91979365 16.4697612 3.07065339 16.56621977 0 16 C-2.625 13.4375 -2.625 13.4375 -4 10 C-3.75 6.125 -3.75 6.125 -3 3 C-2.34 3 -1.68 3 -1 3 C-0.67 2.01 -0.34 1.02 0 0 Z " fill="#60BDBB" transform="translate(164,184)"/>
<path d="M0 0 C5.18324544 3.21989489 8.98895962 7.26014826 11.3203125 12.94140625 C11.7578125 16.31640625 11.7578125 16.31640625 11.3203125 18.94140625 C9.3203125 20.94140625 9.3203125 20.94140625 6.24755859 21.16845703 C4.95930176 21.1579834 3.67104492 21.14750977 2.34375 21.13671875 C1.6585025 21.13388885 0.973255 21.13105896 0.26724243 21.12814331 C-1.92357777 21.11693906 -4.11399066 21.09183484 -6.3046875 21.06640625 C-7.7890566 21.05637673 -9.2734321 21.04725083 -10.7578125 21.0390625 C-14.39857011 21.01699919 -18.03908906 20.98246801 -21.6796875 20.94140625 C-21.6796875 19.95140625 -21.6796875 18.96140625 -21.6796875 17.94140625 C-12.1096875 17.61140625 -2.5396875 17.28140625 7.3203125 16.94140625 C6.27795001 10.68723131 5.83174414 9.80834766 1.3203125 5.94140625 C-1.84209332 3.8331357 -3.18626219 3.6032316 -6.8671875 3.31640625 C-7.76824219 3.24164063 -8.66929688 3.166875 -9.59765625 3.08984375 C-10.28472656 3.04085937 -10.97179687 2.991875 -11.6796875 2.94140625 C-11.6796875 2.28140625 -11.6796875 1.62140625 -11.6796875 0.94140625 C-14.3196875 1.27140625 -16.9596875 1.60140625 -19.6796875 1.94140625 C-16.86720498 -3.68355878 -4.89260375 -1.93279244 0 0 Z " fill="#B0EAE6" transform="translate(135.6796875,129.05859375)"/>
<path d="M0 0 C3.5 0.5625 3.5 0.5625 5.9375 2.125 C8.11348954 5.51954368 8.05627159 7.5990649 7.5 11.5625 C5.875 14.5 5.875 14.5 3.5 16.5625 C0.4375 17.0625 0.4375 17.0625 -2.5 16.5625 C-4.375 15.1875 -4.375 15.1875 -5.5 13.5625 C-5.5 12.9025 -5.5 12.2425 -5.5 11.5625 C-6.16 11.5625 -6.82 11.5625 -7.5 11.5625 C-7.83975517 7.91013197 -7.70830209 5.94577585 -5.9375 2.6875 C-3.5 0.5625 -3.5 0.5625 0 0 Z " fill="#B61E1B" transform="translate(36.5,37.4375)"/>
<path d="M0 0 C13.54582756 -0.80073858 13.54582756 -0.80073858 19 4 C24.17425507 9.08055629 26.75498897 12.38608724 27.25 19.6875 C27.12357619 25.34496537 26.24969298 30.71687209 22.16015625 34.8671875 C18.8761704 37.4234372 16.11837271 39.18922416 12 40 C12 39.67 12 39.34 12 39 C8.04 38.505 8.04 38.505 4 38 C4 37.67 4 37.34 4 37 C5.24716797 36.80083984 5.24716797 36.80083984 6.51953125 36.59765625 C7.60621094 36.42105469 8.69289062 36.24445313 9.8125 36.0625 C10.89144531 35.88847656 11.97039062 35.71445313 13.08203125 35.53515625 C16.04933356 35.06128079 16.04933356 35.06128079 19 34 C20.15521502 31.52869082 20.15521502 31.52869082 21 29 C21.33 28.67 21.66 28.34 22 28 C22.18108303 25.56576916 22.27808118 23.18685234 22.3125 20.75 C22.35600586 19.74646484 22.35600586 19.74646484 22.40039062 18.72265625 C22.44684622 15.08482619 22.10143999 13.15644766 20.10546875 10.078125 C18.17575907 7.95870429 18.17575907 7.95870429 16 7 C16 6.34 16 5.68 16 5 C12.7 4.67 9.4 4.34 6 4 C6 3.67 6 3.34 6 3 C3.69 2.67 1.38 2.34 -1 2 C-0.67 1.34 -0.34 0.68 0 0 Z " fill="#A2DDDB" transform="translate(187,128)"/>
<path d="M0 0 C2.375 0.9375 2.375 0.9375 4 3 C4.33288775 6.02820472 4.22893323 8.96663466 4 12 C0.16065257 14.11332501 -2.59051846 14.39370371 -7 14 C-9.4375 12.9375 -9.4375 12.9375 -11 11 C-11.5625 7.5625 -11.5625 7.5625 -11 4 C-7.67034034 0.18068451 -4.98827134 -0.74293403 0 0 Z " fill="#97DADB" transform="translate(81,185)"/>
<path d="M0 0 C0.33 0 0.66 0 1 0 C0.95875 1.093125 0.9175 2.18625 0.875 3.3125 C0.67925334 7.08892229 0.67925334 7.08892229 3 10 C3.83160083 15.07276507 3.83160083 15.07276507 3 18 C0.63572393 20.50994237 -2.08208968 22.19494234 -5 24 C-5.5878125 24.5465625 -6.175625 25.093125 -6.78125 25.65625 C-10.00301445 27.60745946 -13.10733995 27.32177575 -16.75 27.1875 C-17.44738281 27.17396484 -18.14476562 27.16042969 -18.86328125 27.14648438 C-20.57585541 27.1112945 -22.28802941 27.05749155 -24 27 C-24 26.67 -24 26.34 -24 26 C-23.41992188 25.96261719 -22.83984375 25.92523438 -22.2421875 25.88671875 C-14.32901945 25.22075906 -9.3540838 23.09770655 -4 17 C-2.70480005 14.83379456 -2.70480005 14.83379456 -2 13 C-2.66 13 -3.32 13 -4 13 C-3.67 11.68 -3.34 10.36 -3 9 C-12.57 8.67 -22.14 8.34 -32 8 C-32 9.98 -32 11.96 -32 14 C-34 11 -34 11 -34 7 C-23.44 6.67 -12.88 6.34 -2 6 C-1.34 4.02 -0.68 2.04 0 0 Z " fill="#097D76" transform="translate(147,143)"/>
<path d="M0 0 C4.08606506 -0.20776602 7.11349964 -0.29550012 11 1 C13.25851336 3.25851336 13.40988029 3.92039148 13.625 7 C13.41266176 10.12194594 13.26740572 10.74069749 10.9375 13 C7.45115711 14.18684013 4.65942557 14.28149427 1 14 C0 13 0 13 -0.09765625 10.05859375 C-0.08605469 8.86363281 -0.07445312 7.66867188 -0.0625 6.4375 C-0.05347656 5.23996094 -0.04445312 4.04242188 -0.03515625 2.80859375 C-0.02355469 1.88175781 -0.01195312 0.95492187 0 0 Z " fill="#A9E7E8" transform="translate(180,185)"/>
<path d="M0 0 C3.3 0 6.6 0 10 0 C10.33 2.97 10.66 5.94 11 9 C11.33 9 11.66 9 12 9 C12 10.65 12 12.3 12 14 C8.04 14 4.08 14 0 14 C0 9.38 0 4.76 0 0 Z " fill="#3F908B" transform="translate(108,185)"/>
<path d="M0 0 C0 7.59 0 15.18 0 23 C-0.66 23 -1.32 23 -2 23 C-2.33 24.32 -2.66 25.64 -3 27 C-3.02689216 25.52093108 -3.04634621 24.04172517 -3.0625 22.5625 C-3.07410156 21.73878906 -3.08570313 20.91507813 -3.09765625 20.06640625 C-3 18 -3 18 -2 17 C-1.63239269 14.67182036 -1.29758419 12.3381615 -1 10 C-4.22404978 11.66954819 -4.22404978 11.66954819 -4.6875 14.625 C-4.790625 15.40875 -4.89375 16.1925 -5 17 C-6.0161846 15.67896002 -7.01133494 14.34175973 -8 13 C-8.7425 12.030625 -9.485 11.06125 -10.25 10.0625 C-12 7 -12 7 -11.75 4.125 C-11.5025 3.42375 -11.255 2.7225 -11 2 C-3.375 0 -3.375 0 0 0 Z " fill="#15807C" transform="translate(64,125)"/>
<path d="M0 0 C2.68887808 4.03331713 2.56181004 7.26234819 2 12 C0.625 14.6875 0.625 14.6875 -1 17 C-1.309375 18.010625 -1.61875 19.02125 -1.9375 20.0625 C-3.14780545 23.40863859 -4.46783753 24.53817537 -7 27 C-8.56454081 29.36118363 -10.06355216 31.75173034 -11.53515625 34.171875 C-12.01855469 34.77515625 -12.50195312 35.3784375 -13 36 C-13.99 36 -14.98 36 -16 36 C-15.40881286 31.88173028 -13.06268076 28.96868242 -10.6875 25.6875 C-9.86822239 24.5219348 -9.05049414 23.35527891 -8.234375 22.1875 C-7.49703125 21.135625 -6.7596875 20.08375 -6 19 C-2.40531039 13.85391804 -1.46256226 10.23427777 -2 4 C-3.21428988 2.55611429 -3.21428988 2.55611429 -6.81640625 2.90234375 C-8.39846682 2.90901911 -9.98051159 2.92098125 -11.5625 2.9375 C-12.36880859 2.94201172 -13.17511719 2.94652344 -14.00585938 2.95117188 C-16.00393756 2.96299482 -18.00197783 2.98093086 -20 3 C-16.40071762 0.60047841 -14.28339005 0.61594069 -10 0.375 C-8.7625 0.30023438 -7.525 0.22546875 -6.25 0.1484375 C-4.16824935 0.05335754 -2.08392082 0 0 0 Z " fill="#A5DFDF" transform="translate(95,53)"/>
<path d="M0 0 C0.495 0.99 0.495 0.99 1 2 C0.18660156 2.00257812 -0.62679687 2.00515625 -1.46484375 2.0078125 C-12.88141538 2.39307363 -23.24679008 5.48270316 -33.375 10.7578125 C-34.24125 11.16773438 -35.1075 11.57765625 -36 12 C-36.66 11.67 -37.32 11.34 -38 11 C-37.67 10.34 -37.34 9.68 -37 9 C-36.34 9 -35.68 9 -35 9 C-35 8.34 -35 7.68 -35 7 C-35.99 6.67 -36.98 6.34 -38 6 C-25.90854433 -0.86271808 -13.50219363 -0.36665196 0 0 Z " fill="#C2EEEE" transform="translate(91,52)"/>
<path d="M0 0 C2.625 1.8125 2.625 1.8125 4 5 C4.72662716 10.15596079 4.68271755 14.45646467 2.5625 19.25 C-0.77915562 21.53210628 -2.8132153 21.53396085 -6.73828125 20.8203125 C-10.0372712 19.62378765 -11.87299774 18.03483907 -13.98046875 15.25390625 C-15.90790138 10.99287703 -15.4456518 6.56380456 -15 2 C-9.93028121 -0.25824683 -5.49469422 -0.85246521 0 0 Z M-11.4375 4.125 C-13.20830209 7.38327585 -13.33975517 9.34763197 -13 13 C-12.34 13 -11.68 13 -11 13 C-10.690625 13.639375 -10.38125 14.27875 -10.0625 14.9375 C-9.1654837 16.93610821 -9.1654837 16.93610821 -8 18 C-5.12693772 18.50095023 -5.12693772 18.50095023 -2 18 C1.16196359 15.25408425 1.91691332 13.59199258 2.5 9.4375 C2.24297891 6.00987581 2.24297891 6.00987581 0.4375 3.5625 C-3.89072846 0.78799458 -7.52941869 0.71795475 -11.4375 4.125 Z " fill="#55514E" transform="translate(42,36)"/>
<path d="M0 0 C0.33 0.99 0.66 1.98 1 3 C1.66 3.33 2.32 3.66 3 4 C2.030625 4.70125 1.06125 5.4025 0.0625 6.125 C-8.87086341 13.83935048 -14.1645027 24.48067211 -16 36 C-12.535 35.505 -12.535 35.505 -9 35 C-11.21934164 38.32901247 -12.34683329 38.75023244 -16 40 C-18.45493105 37.54506895 -19.0056092 35.96509832 -19.5625 32.5 C-19.04952595 21.82619374 -11.15326562 13.29511571 -4.390625 5.71484375 C-1.93729302 3.05064693 -1.93729302 3.05064693 0 0 Z " fill="#A3DFE1" transform="translate(43,132)"/>
<path d="M0 0 C3.72108535 1.02147441 6.08774137 1.79875743 8.45507812 4.91601562 C12.35341076 12.21258568 12.60822435 18.46300782 12.3125 26.625 C12.28994141 27.81996094 12.26738281 29.01492187 12.24414062 30.24609375 C12.1857543 33.16540989 12.10391701 36.08201029 12 39 C11.01 39 10.02 39 9 39 C8.98018066 38.20303711 8.96036133 37.40607422 8.93994141 36.58496094 C8.84466752 32.97297528 8.73499693 29.36156601 8.625 25.75 C8.5940625 24.49574219 8.563125 23.24148437 8.53125 21.94921875 C8.49257812 20.74394531 8.45390625 19.53867188 8.4140625 18.296875 C8.3826416 17.18666992 8.3512207 16.07646484 8.31884766 14.93261719 C8.00589634 12.05423191 7.60140496 10.38696175 6 8 C5.01 7.34 4.02 6.68 3 6 C3 5.34 3 4.68 3 4 C-0.96 3.67 -4.92 3.34 -9 3 C-9 2.67 -9 2.34 -9 2 C-6.94921875 1.77213542 -4.8984375 1.54427083 -2.84765625 1.31640625 C-0.98859771 1.18113386 -0.98859771 1.18113386 0 0 Z " fill="#A0DDDD" transform="translate(90,130)"/>
<path d="M0 0 C2 2 2 2 2.5 5.5 C2.22582912 15.01030228 -6.57243864 23.75406783 -12 31 C-12.578125 29.08984375 -12.578125 29.08984375 -13 27 C-11.75 25.5625 -11.75 25.5625 -10 24 C-9.484375 23.113125 -8.96875 22.22625 -8.4375 21.3125 C-7.963125 20.549375 -7.48875 19.78625 -7 19 C-6.34 19 -5.68 19 -5 19 C-4.67 17.02 -4.34 15.04 -4 13 C-3.34 13 -2.68 13 -2 13 C-2 12.34 -2 11.68 -2 11 C-1.34 11 -0.68 11 0 11 C0 8.36 0 5.72 0 3 C-2.45862401 2.94616152 -4.9160755 2.90640962 -7.375 2.875 C-8.07367188 2.85824219 -8.77234375 2.84148438 -9.4921875 2.82421875 C-11.32897486 2.80655733 -13.16601963 2.89696739 -15 3 C-15.66 3.66 -16.32 4.32 -17 5 C-19.8203125 5.1953125 -19.8203125 5.1953125 -23.125 5.125 C-24.22070312 5.10695313 -25.31640625 5.08890625 -26.4453125 5.0703125 C-27.28835937 5.04710937 -28.13140625 5.02390625 -29 5 C-21.00268311 -0.33154459 -9.36269028 -1.09066135 0 0 Z " fill="#29827E" transform="translate(92,55)"/>
<path d="M0 0 C0 1.32 0 2.64 0 4 C-1.32 4 -2.64 4 -4 4 C-3.98839844 4.60328125 -3.97679687 5.2065625 -3.96484375 5.828125 C-3.95130859 7.02695313 -3.95130859 7.02695313 -3.9375 8.25 C-3.92589844 9.03890625 -3.91429687 9.8278125 -3.90234375 10.640625 C-4 13 -4 13 -4.578125 15.07421875 C-5.33343714 18.52207882 -3.58258773 20.99854052 -2 24 C1.19835361 26.99845651 3.91317502 27.9384816 8.3125 28.1875 C11.93035259 28.00354139 14.6435876 27.30981947 18 26 C18 26.66 18 27.32 18 28 C12.58678467 31.51127481 7.2668921 32.01198702 1 31 C-1.76577219 29.61975805 -2.93044526 28.40515821 -5 26 C-5 25.01 -5 24.02 -5 23 C-5.99 22.67 -6.98 22.34 -8 22 C-9.03311551 7.13461572 -9.03311551 7.13461572 -5.125 2.5625 C-2.46616541 0 -2.46616541 0 0 0 Z " fill="#3A8D87" transform="translate(188,134)"/>
<path d="M0 0 C1.32 0 2.64 0 4 0 C4 1.65 4 3.3 4 5 C5.65 5 7.3 5 9 5 C9 3.35 9 1.7 9 0 C10.32 0 11.64 0 13 0 C13 4.29 13 8.58 13 13 C11.68 13 10.36 13 9 13 C9 11.68 9 10.36 9 9 C7.35 9 5.7 9 4 9 C4 10.65 4 12.3 4 14 C2.68 14.33 1.36 14.66 0 15 C0 10.05 0 5.1 0 0 Z " fill="#61AEAA" transform="translate(54,185)"/>
<path d="M0 0 C0.33 0 0.66 0 1 0 C1 22.77 1 45.54 1 69 C0.67 69 0.34 69 0 69 C0 54.15 0 39.3 0 24 C-8.03660072 26.52224169 -8.03660072 26.52224169 -13.25 32.1875 C-13.4975 32.785625 -13.745 33.38375 -14 34 C-14.12375 33.360625 -14.2475 32.72125 -14.375 32.0625 C-14.58125 31.381875 -14.7875 30.70125 -15 30 C-15.66 29.67 -16.32 29.34 -17 29 C-15.33333333 28 -13.66666667 27 -12 26 C-11.113125 25.443125 -10.22625 24.88625 -9.3125 24.3125 C-7 23 -7 23 -5 23 C-5 22.34 -5 21.68 -5 21 C-3.35 20.67 -1.7 20.34 0 20 C0 13.4 0 6.8 0 0 Z " fill="#87C4C3" transform="translate(65,98)"/>
<path d="M0 0 C1.4656401 0.03315928 2.93087264 0.09269146 4.39453125 0.17578125 C5.14412109 0.19833984 5.89371094 0.22089844 6.66601562 0.24414062 C8.51387595 0.30298968 10.36070792 0.39267187 12.20703125 0.48828125 C12.47773438 1.143125 12.7484375 1.79796875 13.02734375 2.47265625 C13.61128906 3.47039062 13.61128906 3.47039062 14.20703125 4.48828125 C15.15578125 4.57078125 16.10453125 4.65328125 17.08203125 4.73828125 C20.20703125 5.48828125 20.20703125 5.48828125 21.453125 7.1796875 C25.61606948 15.45982981 26.30890077 23.8726252 24.51953125 32.98828125 C23.20703125 36.48828125 23.20703125 36.48828125 20.70703125 38.55078125 C19.88203125 38.86015625 19.05703125 39.16953125 18.20703125 39.48828125 C17.54703125 39.15828125 16.88703125 38.82828125 16.20703125 38.48828125 C16.99078125 37.80765625 17.77453125 37.12703125 18.58203125 36.42578125 C22.75818121 31.75247059 23.66940464 26.58219111 23.4453125 20.4609375 C22.62711915 13.68736957 19.10998597 10.0653983 14.14453125 5.87109375 C10.61379359 3.35117211 7.48093181 3.32680968 3.26953125 3.30078125 C2.22925781 3.28660156 1.18898437 3.27242187 0.1171875 3.2578125 C-2.74343488 3.48435843 -4.36967026 4.01094506 -6.79296875 5.48828125 C-5.14790836 1.35937475 -4.53092509 0.58328078 0 0 Z " fill="#26817E" transform="translate(189.79296875,125.51171875)"/>
<path d="M0 0 C1.32 0.33 2.64 0.66 4 1 C5.25 3.5625 5.25 3.5625 6 6 C6.763125 5.195625 7.52625 4.39125 8.3125 3.5625 C11 1 11 1 14 0 C14 4.62 14 9.24 14 14 C13.01 13.67 12.02 13.34 11 13 C11 11.02 11 9.04 11 7 C10.34 7 9.68 7 9 7 C9 7.66 9 8.32 9 9 C7.68 9 6.36 9 5 9 C4.67 8.34 4.34 7.68 4 7 C3.67 9.31 3.34 11.62 3 14 C2.01 14 1.02 14 0 14 C0 9.38 0 4.76 0 0 Z " fill="#A1D9D7" transform="translate(89,185)"/>
<path d="M0 0 C0.33 0 0.66 0 1 0 C1 12.87 1 25.74 1 39 C2.65 39 4.3 39 6 39 C6 39.66 6 40.32 6 41 C2.66666667 41 -0.66666667 41 -4 41 C-4.33 39.02 -4.66 37.04 -5 35 C-3.68 34.34 -2.36 33.68 -1 33 C-1.00523682 32.03586182 -1.01047363 31.07172363 -1.01586914 30.07836914 C-1.03392118 26.51327436 -1.04543274 22.94818364 -1.05493164 19.38305664 C-1.0599714 17.83780234 -1.0668032 16.29255284 -1.07543945 14.74731445 C-1.08752076 12.53074971 -1.09323173 10.31424782 -1.09765625 8.09765625 C-1.10281754 7.4028566 -1.10797882 6.70805695 -1.11329651 5.99220276 C-1.11349277 4.3277067 -1.06189129 2.66334501 -1 1 C-0.67 0.67 -0.34 0.34 0 0 Z " fill="#3E9595" transform="translate(152,129)"/>
<path d="M0 0 C4.95 0 9.9 0 15 0 C19 4 19 4 19.25 6.75 C19.1675 7.4925 19.085 8.235 19 9 C17.0625 8.6875 17.0625 8.6875 15 8 C14.67 7.01 14.34 6.02 14 5 C11.03 4.505 11.03 4.505 8 4 C8 3.67 8 3.34 8 3 C5.69 2.67 3.38 2.34 1 2 C1 14.21 1 26.42 1 39 C2.32 39.33 3.64 39.66 5 40 C3.35 40 1.7 40 0 40 C0 26.8 0 13.6 0 0 Z " fill="#D0F8F6" transform="translate(153,128)"/>
<path d="M0 0 C0.70189453 0.00451172 1.40378906 0.00902344 2.12695312 0.01367188 C3.85550538 0.02543073 5.58401365 0.04336546 7.3125 0.0625 C7.3125 0.3925 7.3125 0.7225 7.3125 1.0625 C6.57644531 1.16046875 5.84039062 1.2584375 5.08203125 1.359375 C-2.56617612 2.52405877 -2.56617612 2.52405877 -8.6875 7.0625 C-9.8321875 8.17625 -9.8321875 8.17625 -11 9.3125 C-11.556875 9.89 -12.11375 10.4675 -12.6875 11.0625 C-13.0175 10.4025 -13.3475 9.7425 -13.6875 9.0625 C-14.14125 9.8875 -14.595 10.7125 -15.0625 11.5625 C-15.59875 12.3875 -16.135 13.2125 -16.6875 14.0625 C-17.3475 14.0625 -18.0075 14.0625 -18.6875 14.0625 C-18.3575 18.0225 -18.0275 21.9825 -17.6875 26.0625 C-20.25982706 23.49017294 -19.98536466 22.38352308 -20 18.8125 C-19.83588635 11.4080781 -17.32013095 7.35425103 -12.1875 2.26171875 C-8.58229693 -0.62056599 -4.35548803 -0.05286774 0 0 Z " fill="#CFF0F0" transform="translate(192.6875,129.9375)"/>
<path d="M0 0 C3.31562557 0.55260426 6.15062207 1.16825705 9 3 C9.33 3.99 9.66 4.98 10 6 C11.62652316 7.70586575 13.29006566 9.3777546 15 11 C14.67 11.66 14.34 12.32 14 13 C13.01 12.34 12.02 11.68 11 11 C11.061875 12.423125 11.061875 12.423125 11.125 13.875 C11 17 11 17 9 19 C5 12.25 5 12.25 5 10 C4.34 10 3.68 10 3 10 C2.49818809 8.52144705 1.99859924 7.04213942 1.5 5.5625 C1.2215625 4.73878906 0.943125 3.91507813 0.65625 3.06640625 C0 1 0 1 0 0 Z " fill="#D4F0EF" transform="translate(41,125)"/>
<path d="M0 0 C1.0725 -0.01417969 2.145 -0.02835938 3.25 -0.04296875 C6 0.1875 6 0.1875 8 2.1875 C7.01 2.5175 6.02 2.8475 5 3.1875 C5 2.5275 5 1.8675 5 1.1875 C0.20230335 1.65786242 -3.01778406 2.45683764 -7 5.1875 C-7.99 5.6825 -7.99 5.6825 -9 6.1875 C-9.40729228 8.50906597 -9.74438677 10.8443787 -10 13.1875 C-11.32 13.5175 -12.64 13.8475 -14 14.1875 C-4.43 14.1875 5.14 14.1875 15 14.1875 C15 14.5175 15 14.8475 15 15.1875 C5.1 15.1875 -4.8 15.1875 -15 15.1875 C-14 8.1875 -14 8.1875 -12 5.1875 C-11.34 5.1875 -10.68 5.1875 -10 5.1875 C-9.566875 4.2284375 -9.566875 4.2284375 -9.125 3.25 C-7.01236298 -0.62316788 -4.06613797 0.02443593 0 0 Z " fill="#2D817F" transform="translate(128,131.8125)"/>
<path d="M0 0 C1.98 0 3.96 0 6 0 C6 11.55 6 23.1 6 35 C4 33 4 33 3.77294922 29.92724609 C3.78342285 28.63898926 3.79389648 27.35073242 3.8046875 26.0234375 C3.8075174 25.33819 3.81034729 24.6529425 3.81326294 23.94692993 C3.82446719 21.75610973 3.84957141 19.56569684 3.875 17.375 C3.88502952 15.8906309 3.89415542 14.4062554 3.90234375 12.921875 C3.92440706 9.28111739 3.95893824 5.64059844 4 2 C3.01 2.495 3.01 2.495 2 3 C1.67 8.94 1.34 14.88 1 21 C0.67 21 0.34 21 0 21 C0 14.07 0 7.14 0 0 Z " fill="#D1F2F1" transform="translate(66,97)"/>
<path d="M0 0 C1.03071195 3.09213585 1.45864339 4.78949624 1 8 C-1.375 10.625 -1.375 10.625 -4 13 C-4.99 14.485 -4.99 14.485 -6 16 C-6.33 16 -6.66 16 -7 16 C-7.33 17.98 -7.66 19.96 -8 22 C-7.484375 21.67 -6.96875 21.34 -6.4375 21 C-3.21973488 19.67989123 -0.4429472 19.86757895 3 20 C1.24135754 22.1793144 0.30604 22.93686419 -2.48046875 23.51171875 C-3.37378906 23.56972656 -4.26710938 23.62773437 -5.1875 23.6875 C-6.08855469 23.75324219 -6.98960938 23.81898438 -7.91796875 23.88671875 C-8.60503906 23.92410156 -9.29210937 23.96148437 -10 24 C-10.13597863 15.21966541 -6.89622564 9.14645406 -2 2 C-1.34 1.34 -0.68 0.68 0 0 Z " fill="#1E827E" transform="translate(37,144)"/>
<path d="M0 0 C0 0.99 0 1.98 0 3 C-0.99580078 3.12955078 -0.99580078 3.12955078 -2.01171875 3.26171875 C-7.83490224 4.18832751 -11.28011665 5.08015428 -15 10 C-16.03714522 13.11143567 -16.20031861 15.49468096 -16.31640625 18.76171875 C-16.35830078 19.87998047 -16.40019531 20.99824219 -16.44335938 22.15039062 C-16.48267578 23.31763672 -16.52199219 24.48488281 -16.5625 25.6875 C-16.60568359 26.86634766 -16.64886719 28.04519531 -16.69335938 29.25976562 C-16.79951176 32.17305883 -16.90156242 35.08643757 -17 38 C-17.33 38 -17.66 38 -18 38 C-18.05828635 33.79172527 -18.093693 29.58355511 -18.125 25.375 C-18.14175781 24.18519531 -18.15851563 22.99539062 -18.17578125 21.76953125 C-18.18222656 20.61582031 -18.18867187 19.46210938 -18.1953125 18.2734375 C-18.20578613 17.21560059 -18.21625977 16.15776367 -18.22705078 15.06787109 C-17.98270857 11.76636112 -17.16882977 9.08587237 -16 6 C-15.01 6 -14.02 6 -13 6 C-13 5.34 -13 4.68 -13 4 C-14.32 3.67 -15.64 3.34 -17 3 C-11.17521449 -0.03901852 -6.51791392 -0.3540919 0 0 Z " fill="#D3F4F2" transform="translate(89,129)"/>
<path d="M0 0 C3.5625 0.375 3.5625 0.375 5.5625 2 C6.88044101 5.1301099 6.37304223 7.13283109 5.5625 10.375 C3.9125 10.705 2.2625 11.035 0.5625 11.375 C1.2225 8.735 1.8825 6.095 2.5625 3.375 C1.2425 3.375 -0.0775 3.375 -1.4375 3.375 C-1.1075 6.345 -0.7775 9.315 -0.4375 12.375 C-2.9125 11.385 -2.9125 11.385 -5.4375 10.375 C-5.6328125 4.3203125 -5.6328125 4.3203125 -5.4375 2.375 C-3.4375 0.375 -3.4375 0.375 0 0 Z " fill="#277D78" transform="translate(168.4375,185.625)"/>
<path d="M0 0 C3.5 0.5625 3.5 0.5625 5.9375 2.125 C8.11348954 5.51954368 8.05627159 7.5990649 7.5 11.5625 C5.875 14.5 5.875 14.5 3.5 16.5625 C0.4375 17.125 0.4375 17.125 -2.5 16.5625 C-4.375 14.5625 -4.375 14.5625 -5.5 12.5625 C-1.045 13.5525 -1.045 13.5525 3.5 14.5625 C3.5 13.5725 3.5 12.5825 3.5 11.5625 C4.16 11.5625 4.82 11.5625 5.5 11.5625 C4.84 8.5925 4.18 5.6225 3.5 2.5625 C1.85 2.5625 0.2 2.5625 -1.5 2.5625 C-1.5 3.8825 -1.5 5.2025 -1.5 6.5625 C-2.82 6.5625 -4.14 6.5625 -5.5 6.5625 C-5.5 8.2125 -5.5 9.8625 -5.5 11.5625 C-6.16 11.5625 -6.82 11.5625 -7.5 11.5625 C-7.83975517 7.91013197 -7.70830209 5.94577585 -5.9375 2.6875 C-3.5 0.5625 -3.5 0.5625 0 0 Z " fill="#922E2D" transform="translate(36.5,37.4375)"/>
<path d="M0 0 C6.40818182 -0.36272727 6.40818182 -0.36272727 8.9375 1.1875 C10.41359492 3.70554428 10.49089348 5.12476676 10 8 C8.0625 10.3125 8.0625 10.3125 6 12 C5.67 12 5.34 12 5 12 C5 9.03 5 6.06 5 3 C4.01 3 3.02 3 2 3 C2 5.97 2 8.94 2 12 C1.01 11.67 0.02 11.34 -1 11 C-2.23076923 4.6 -2.23076923 4.6 -1.0625 1.5625 C-0.711875 1.046875 -0.36125 0.53125 0 0 Z " fill="#2A8280" transform="translate(147,186)"/>
<path d="M0 0 C2.64 0 5.28 0 8 0 C7.67854004 0.50305664 7.35708008 1.00611328 7.02587891 1.52441406 C5.64332849 4.86069708 5.64453553 8.05231593 5.5859375 11.609375 C5.56657135 12.33618469 5.5472052 13.06299438 5.5272522 13.81182861 C5.46765729 16.12443448 5.42115242 18.43709067 5.375 20.75 C5.33680164 22.32163582 5.29774883 23.89325113 5.2578125 25.46484375 C5.16197257 29.30972842 5.07786805 33.15471107 5 37 C3.35 37 1.7 37 0 37 C0.33 36.01 0.66 35.02 1 34 C1.66 34.33 2.32 34.66 3 35 C3 23.78 3 12.56 3 1 C2.01 0.67 1.02 0.34 0 0 Z " fill="#D0F3F1" transform="translate(154,130)"/>
<path d="M0 0 C0.33 1.32 0.66 2.64 1 4 C-2.3340947 6.19097652 -5.04179141 7.43454163 -9 8 C-9 8.66 -9 9.32 -9 10 C-11.40545638 11.20272819 -12.94996953 11.10071472 -15.625 11.0625 C-16.85089844 11.04896484 -16.85089844 11.04896484 -18.1015625 11.03515625 C-19.04128906 11.01775391 -19.04128906 11.01775391 -20 11 C-20.33 10.34 -20.66 9.68 -21 9 C-20.278125 8.731875 -19.55625 8.46375 -18.8125 8.1875 C-15.98381445 7.08689377 -15.98381445 7.08689377 -13.5625 5.4375 C-10.68639376 3.82407455 -8.22852046 3.51362825 -5 3 C-4.67 2.34 -4.34 1.68 -4 1 C-1.9375 0.375 -1.9375 0.375 0 0 Z " fill="#D1F3F1" transform="translate(49,161)"/>
<path d="M0 0 C2.93576279 1.012332 3.97512741 1.96357942 5.75 4.5625 C7.32264511 8.88727404 7.85371162 12.45477612 7 17 C4.97657228 21.16729756 2.02124328 24.64271946 -2 27 C-2.66 27 -3.32 27 -4 27 C-4 26.34 -4 25.68 -4 25 C-3.34 25 -2.68 25 -2 25 C-2 24.34 -2 23.68 -2 23 C-1.01 23 -0.02 23 1 23 C1.99 19.535 1.99 19.535 3 16 C3.66 16 4.32 16 5 16 C4.01 12.37 3.02 8.74 2 5 C0.35 5.33 -1.3 5.66 -3 6 C-3.33 6.66 -3.66 7.32 -4 8 C-4.66 8 -5.32 8 -6 8 C-4.55746343 4.63408134 -2.66735273 2.48952921 0 0 Z " fill="#26847B" transform="translate(44,136)"/>
<path d="M0 0 C5.69649422 3.7640822 5.69649422 3.7640822 7.1796875 6.73046875 C6.1896875 7.06046875 5.1996875 7.39046875 4.1796875 7.73046875 C2.81059228 6.72869176 1.4417026 5.72663173 0.07421875 4.72265625 C-3.58543019 2.8060566 -7.7570232 2.89107307 -11.8203125 2.73046875 C-11.8203125 2.07046875 -11.8203125 1.41046875 -11.8203125 0.73046875 C-14.4603125 1.06046875 -17.1003125 1.39046875 -19.8203125 1.73046875 C-16.97340035 -3.96335555 -4.82645917 -2.17257511 0 0 Z " fill="#A5DAD8" transform="translate(135.8203125,129.26953125)"/>
<path d="M0 0 C0.33 0 0.66 0 1 0 C1 9.9 1 19.8 1 30 C0.67 30 0.34 30 0 30 C-0.04898438 29.39671875 -0.09796875 28.7934375 -0.1484375 28.171875 C-0.22320312 27.37265625 -0.29796875 26.5734375 -0.375 25.75 C-0.44460937 24.96109375 -0.51421875 24.1721875 -0.5859375 23.359375 C-0.87008429 21.00662607 -0.87008429 21.00662607 -2 19.15625 C-3.43819632 16.05513918 -3.43631057 13.14640972 -3.625 9.75 C-3.69976562 8.48671875 -3.77453125 7.2234375 -3.8515625 5.921875 C-3.90054688 4.95765625 -3.94953125 3.9934375 -4 3 C-2.68 3 -1.36 3 0 3 C0 2.01 0 1.02 0 0 Z " fill="#117971" transform="translate(150,132)"/>
<path d="M0 0 C1.32 0 2.64 0 4 0 C4.33 0.99 4.66 1.98 5 3 C5.66 3.33 6.32 3.66 7 4 C7 5.32 7 6.64 7 8 C10.3 7.67 13.6 7.34 17 7 C17 6.34 17 5.68 17 5 C19.70879335 3.64560332 22.00933268 3.93498549 25 4 C24.01 4.33 23.02 4.66 22 5 C22 5.66 22 6.32 22 7 C20.390625 8.25390625 20.390625 8.25390625 18.25 9.5625 C17.55390625 9.99691406 16.8578125 10.43132812 16.140625 10.87890625 C14.08002255 11.95809038 12.27135078 12.54470671 10 13 C9.61328125 12.54109375 9.2265625 12.0821875 8.828125 11.609375 C6.5004872 8.86691066 4.20447464 6.19909373 1.625 3.6875 C0 2 0 2 0 0 Z " fill="#2C827C" transform="translate(38,114)"/>
<path d="M0 0 C3.3 0 6.6 0 10 0 C10 0.66 10 1.32 10 2 C7.36 2 4.72 2 2 2 C2 3.32 2 4.64 2 6 C4.31 6 6.62 6 9 6 C9 6.66 9 7.32 9 8 C6.69 8 4.38 8 2 8 C2 9.32 2 10.64 2 12 C4.64 12 7.28 12 10 12 C10 12.66 10 13.32 10 14 C6.7 14 3.4 14 0 14 C0 9.38 0 4.76 0 0 Z " fill="#ADE9E9" transform="translate(108,185)"/>
<path d="M0 0 C0.7425 0.763125 1.485 1.52625 2.25 2.3125 C3.1575 3.199375 4.065 4.08625 5 5 C5.5775 5.5775 6.155 6.155 6.75 6.75 C10.27510732 8.70839295 14.02487068 8.75367788 18 9 C17.67 9.66 17.34 10.32 17 11 C3.62874251 11.59281437 3.62874251 11.59281437 -2 8 C-3.9375 4.8125 -3.9375 4.8125 -5 2 C-4.34 2 -3.68 2 -3 2 C-3 2.66 -3 3.32 -3 4 C-2.01 4 -1.02 4 0 4 C0 2.68 0 1.36 0 0 Z " fill="#C8EEEC" transform="translate(182,157)"/>
<path d="M0 0 C0.33 0 0.66 0 1 0 C1.30389967 2.72907918 1.5687825 5.45294492 1.8125 8.1875 C1.90208984 8.95642578 1.99167969 9.72535156 2.08398438 10.51757812 C2.43662128 14.84202016 2.4948366 16.38187078 -0.3203125 19.8984375 C-1.64675781 20.93871094 -1.64675781 20.93871094 -3 22 C-3.886875 22.804375 -4.77375 23.60875 -5.6875 24.4375 C-10.47500773 26.69575837 -14.06578802 25.44320825 -19 24 C-19 23.67 -19 23.34 -19 23 C-17.75283203 22.80083984 -17.75283203 22.80083984 -16.48046875 22.59765625 C-15.39378906 22.42105469 -14.30710938 22.24445313 -13.1875 22.0625 C-12.10855469 21.88847656 -11.02960938 21.71445313 -9.91796875 21.53515625 C-6.95066644 21.06128079 -6.95066644 21.06128079 -4 20 C-2.84478498 17.52869082 -2.84478498 17.52869082 -2 15 C-1.67 14.67 -1.34 14.34 -1 14 C-0.76472227 11.65012738 -0.58613583 9.29443961 -0.4375 6.9375 C-0.35371094 5.64714844 -0.26992187 4.35679687 -0.18359375 3.02734375 C-0.09271484 1.52880859 -0.09271484 1.52880859 0 0 Z " fill="#A9DEE2" transform="translate(210,142)"/>
<path d="M0 0 C0.33 0 0.66 0 1 0 C1.07427838 3.34252724 1.06546953 5.8035914 0 9 C-0.14459328 10.3522149 -0.26856711 11.70674766 -0.375 13.0625 C-0.58125 14.361875 -0.7875 15.66125 -1 17 C-1.99 17.66 -2.98 18.32 -4 19 C-3.34 17.02 -2.68 15.04 -2 13 C-2.66 13 -3.32 13 -4 13 C-3.67 11.68 -3.34 10.36 -3 9 C-12.57 8.67 -22.14 8.34 -32 8 C-32 9.98 -32 11.96 -32 14 C-34 11 -34 11 -34 7 C-23.44 6.67 -12.88 6.34 -2 6 C-1.34 4.02 -0.68 2.04 0 0 Z " fill="#4F9898" transform="translate(147,143)"/>
<path d="M0 0 C3.63 0 7.26 0 11 0 C11 0.66 11 1.32 11 2 C8.36 2 5.72 2 3 2 C3 3.32 3 4.64 3 6 C5.31 6 7.62 6 10 6 C10 6.66 10 7.32 10 8 C7.69 8 5.38 8 3 8 C3 9.98 3 11.96 3 14 C2.01 13.67 1.02 13.34 0 13 C0 8.71 0 4.42 0 0 Z " fill="#95D8D4" transform="translate(129,185)"/>
<path d="M0 0 C9.41878248 0.01184753 9.41878248 0.01184753 12.91796875 2.81640625 C16.6936012 7.1881912 17.54504592 9.85453539 17.48828125 15.64453125 C17.48183594 16.8046875 17.47539063 17.96484375 17.46875 19.16015625 C17.45199219 20.36671875 17.43523437 21.57328125 17.41796875 22.81640625 C17.40894531 24.0384375 17.39992188 25.26046875 17.390625 26.51953125 C17.36706388 29.53535407 17.33416581 32.55078117 17.29296875 35.56640625 C16.96296875 35.56640625 16.63296875 35.56640625 16.29296875 35.56640625 C15.96296875 28.30640625 15.63296875 21.04640625 15.29296875 13.56640625 C14.96296875 13.56640625 14.63296875 13.56640625 14.29296875 13.56640625 C13.96296875 11.25640625 13.63296875 8.94640625 13.29296875 6.56640625 C12.63296875 6.56640625 11.97296875 6.56640625 11.29296875 6.56640625 C10.96296875 5.24640625 10.63296875 3.92640625 10.29296875 2.56640625 C8.37661658 2.51216987 6.4598195 2.47350662 4.54296875 2.44140625 C3.475625 2.41820312 2.40828125 2.395 1.30859375 2.37109375 C-1.63173231 2.56152938 -3.23065003 3.03970521 -5.70703125 4.56640625 C-4.04907459 1.70059113 -3.30907408 0.69237481 0 0 Z " fill="#549F9B" transform="translate(81.70703125,132.43359375)"/>
<path d="M0 0 C1.2375 0.1546875 1.2375 0.1546875 2.5 0.3125 C4.5 3.3125 4.5 3.3125 4.1875 5.9375 C3.5 8.3125 3.5 8.3125 2.5 9.3125 C0.0625 9.5 0.0625 9.5 -2.5 9.3125 C-4.5 7.3125 -4.5 7.3125 -4.75 4.8125 C-4.40047575 1.3172575 -3.47557682 0.4344471 0 0 Z " fill="#3A8686" transform="translate(77.5,186.6875)"/>
<path d="M0 0 C0.33 0 0.66 0 1 0 C1.19581346 4.47884439 1.3802636 8.95808426 1.5625 13.4375 C1.61857422 14.71689453 1.67464844 15.99628906 1.73242188 17.31445312 C1.78076172 18.52939453 1.82910156 19.74433594 1.87890625 20.99609375 C1.9260376 22.12200928 1.97316895 23.2479248 2.02172852 24.40795898 C2 27 2 27 1 28 C-2.33618231 28.14257189 -5.65975606 28.04228157 -9 28 C-8.67 22.72 -8.34 17.44 -8 12 C-7.67 12 -7.34 12 -7 12 C-7 16.29 -7 20.58 -7 25 C-5.02 25 -3.04 25 -1 25 C-0.67 16.75 -0.34 8.5 0 0 Z " fill="#4A9B95" transform="translate(72,142)"/>
<path d="M0 0 C1.44246094 -0.02126953 1.44246094 -0.02126953 2.9140625 -0.04296875 C5.375 0.1875 5.375 0.1875 7.375 2.1875 C8.365 1.8575 9.355 1.5275 10.375 1.1875 C10.705 2.8375 11.035 4.4875 11.375 6.1875 C10.59125 5.8575 9.8075 5.5275 9 5.1875 C2.92297047 3.51107806 -3.51011596 3.55686426 -9.625 5.1875 C-9.625 3.8675 -9.625 2.5475 -9.625 1.1875 C-6.37294841 0.22421457 -3.38614248 0.02281767 0 0 Z " fill="#3D908C" transform="translate(83.625,125.8125)"/>
<path d="M0 0 C0.33 0.99 0.66 1.98 1 3 C1.66 3 2.32 3 3 3 C2.06400438 5.08799023 1.26731241 6.74097051 -0.38671875 8.34375 C-2.91679236 10.94121055 -4.61297201 14.05555586 -6.5 17.13671875 C-7.2425 18.05904297 -7.2425 18.05904297 -8 19 C-8.99 19 -9.98 19 -11 19 C-10.41769844 14.77831371 -7.92500056 11.73846827 -5.5 8.375 C-2.52934432 4.32411556 -2.52934432 4.32411556 0 0 Z " fill="#8ECACD" transform="translate(90,70)"/>
<path d="M0 0 C0.33 0 0.66 0 1 0 C1.01417969 0.845625 1.02835937 1.69125 1.04296875 2.5625 C1.34908514 9.843106 1.99166433 15.44558411 7 21 C7.66 21.33 8.32 21.66 9 22 C9 22.66 9 23.32 9 24 C9.66 24.33 10.32 24.66 11 25 C10.01 25 9.02 25 8 25 C8 24.34 8 23.68 8 23 C6.68 23 5.36 23 4 23 C1.47604318 21.05849475 0.16413523 18.93735388 -1 16 C-1.23046875 12.6171875 -1.23046875 12.6171875 -1.1875 8.875 C-1.18105469 7.63492188 -1.17460938 6.39484375 -1.16796875 5.1171875 C-1 2 -1 2 0 0 Z " fill="#368C89" transform="translate(106,142)"/>
<path d="M0 0 C0.33 0.66 0.66 1.32 1 2 C2.32 1.34 3.64 0.68 5 0 C5 4.62 5 9.24 5 14 C3.35 13.67 1.7 13.34 0 13 C0 8.71 0 4.42 0 0 Z " fill="#2C8580" transform="translate(103,185)"/>
<path d="M0 0 C0.66 0 1.32 0 2 0 C2 1.65 2 3.3 2 5 C4.31 5 6.62 5 9 5 C9 3.35 9 1.7 9 0 C9.66 0 10.32 0 11 0 C11 3.96 11 7.92 11 12 C10.34 12 9.68 12 9 12 C9 10.35 9 8.7 9 7 C6.69 7 4.38 7 2 7 C2 8.65 2 10.3 2 12 C1.34 12 0.68 12 0 12 C0 8.04 0 4.08 0 0 Z " fill="#ACE9E7" transform="translate(55,186)"/>
<path d="M0 0 C0.66 0 1.32 0 2 0 C1.5248459 4.27638694 -0.87883735 6.23351492 -4 9 C-8.33494491 11.82275483 -10.95492071 13.12878307 -16.125 13.0625 C-17.03507812 13.05347656 -17.94515625 13.04445312 -18.8828125 13.03515625 C-19.58148438 13.02355469 -20.28015625 13.01195312 -21 13 C-21 12.67 -21 12.34 -21 12 C-18.36 12 -15.72 12 -13 12 C-13 11.34 -13 10.68 -13 10 C-12.48050781 9.78085938 -11.96101562 9.56171875 -11.42578125 9.3359375 C-6.19673886 6.95822137 -3.49225062 4.51938315 0 0 Z " fill="#A4E0E0" transform="translate(143,156)"/>
<path d="M0 0 C2.35617414 3.12929378 4.68563128 6.27715938 7 9.4375 C7.680625 10.36433594 8.36125 11.29117188 9.0625 12.24609375 C10.8388714 14.77097648 12.45026743 17.33155423 14 20 C12.68 20 11.36 20 10 20 C9.67 19.01 9.34 18.02 9 17 C8.34 16.690625 7.68 16.38125 7 16.0625 C6.34 15.711875 5.68 15.36125 5 15 C4.375 12.9375 4.375 12.9375 4 11 C3.34 10.67 2.68 10.34 2 10 C1.855625 9.34 1.71125 8.68 1.5625 8 C1.376875 7.34 1.19125 6.68 1 6 C0.01 5.67 -0.98 5.34 -2 5 C-1.34 3.35 -0.68 1.7 0 0 Z " fill="#41948E" transform="translate(20,102)"/>
<path d="M0 0 C1.65322266 0.01740234 1.65322266 0.01740234 3.33984375 0.03515625 C4.99693359 0.04869141 4.99693359 0.04869141 6.6875 0.0625 C7.54214844 0.07410156 8.39679688 0.08570313 9.27734375 0.09765625 C9.27734375 0.42765625 9.27734375 0.75765625 9.27734375 1.09765625 C5.64734375 1.09765625 2.01734375 1.09765625 -1.72265625 1.09765625 C-1.39265625 5.38765625 -1.06265625 9.67765625 -0.72265625 14.09765625 C-0.06265625 14.09765625 0.59734375 14.09765625 1.27734375 14.09765625 C1.60734375 13.10765625 1.93734375 12.11765625 2.27734375 11.09765625 C3.92734375 11.09765625 5.57734375 11.09765625 7.27734375 11.09765625 C5.95734375 11.42765625 4.63734375 11.75765625 3.27734375 12.09765625 C3.27734375 13.74765625 3.27734375 15.39765625 3.27734375 17.09765625 C-0.72265625 17.09765625 -0.72265625 17.09765625 -2.45703125 16.01171875 C-4.33481342 13.171863 -4.04723589 10.83619811 -3.97265625 7.47265625 C-3.9571875 6.30476562 -3.94171875 5.136875 -3.92578125 3.93359375 C-3.6534221 0.13104096 -3.6534221 0.13104096 0 0 Z " fill="#21827D" transform="translate(130.72265625,183.90234375)"/>
<path d="M0 0 C0.33 0.99 0.66 1.98 1 3 C1.66 3 2.32 3 3 3 C2.67 10.92 2.34 18.84 2 27 C1.34 27 0.68 27 0 27 C0 18.09 0 9.18 0 0 Z " fill="#1C7872" transform="translate(102,141)"/>
<path d="M0 0 C0.66386719 0.42152344 1.32773438 0.84304687 2.01171875 1.27734375 C2.89472656 1.82519531 3.77773437 2.37304688 4.6875 2.9375 C5.99267578 3.75541016 5.99267578 3.75541016 7.32421875 4.58984375 C9.94624689 5.97167172 12.08310075 6.58480173 15 7 C15 7.66 15 8.32 15 9 C4.44191344 9.3690205 4.44191344 9.3690205 0 7 C0 6.34 0 5.68 0 5 C-0.66 4.67 -1.32 4.34 -2 4 C-1.01 4 -0.02 4 1 4 C0.67 2.68 0.34 1.36 0 0 Z " fill="#CBF0ED" transform="translate(115,159)"/>
<path d="M0 0 C2.375 -0.125 2.375 -0.125 5 0 C7 2 7 2 7.25 4.5 C7 7 7 7 5 9 C2.375 9.125 2.375 9.125 0 9 C0 6.03 0 3.06 0 0 Z " fill="#1B8174" transform="translate(183,187)"/>
<path d="M0 0 C0.33 0 0.66 0 1 0 C1.02505615 1.22106445 1.0501123 2.44212891 1.07592773 3.70019531 C1.17013579 8.23269045 1.27032384 12.76503714 1.37231445 17.29736328 C1.4156126 19.25859096 1.45729131 21.2198551 1.49731445 23.18115234 C1.55514099 26.00108828 1.61879984 28.82084161 1.68359375 31.640625 C1.70030624 32.51680481 1.71701874 33.39298462 1.73423767 34.29571533 C1.75418289 35.11626404 1.77412811 35.93681274 1.79467773 36.78222656 C1.81022202 37.50170471 1.8257663 38.22118286 1.84178162 38.96246338 C2.11720018 42.50930409 2.43942587 44.43942587 5 47 C3.35 46.67 1.7 46.34 0 46 C0 30.82 0 15.64 0 0 Z " fill="#CDF3EF" transform="translate(66,121)"/>
<path d="M0 0 C-1.33580791 4.18793833 -2.9240319 6.14230282 -6.4375 8.75 C-7.21996094 9.34296875 -8.00242187 9.9359375 -8.80859375 10.546875 C-11 12 -11 12 -14 13 C-14.66 12.34 -15.32 11.68 -16 11 C-14.71372289 9.82739389 -13.42080217 8.6620717 -12.125 7.5 C-11.40570313 6.8503125 -10.68640625 6.200625 -9.9453125 5.53125 C-8 4 -8 4 -6 4 C-6 3.34 -6 2.68 -6 2 C-2.25 0 -2.25 0 0 0 Z " fill="#348A85" transform="translate(49,67)"/>
<path d="M0 0 C0 4.95 0 9.9 0 15 C-2.40545638 16.20272819 -3.94996953 16.10071472 -6.625 16.0625 C-7.85089844 16.04896484 -7.85089844 16.04896484 -9.1015625 16.03515625 C-9.72804688 16.02355469 -10.35453125 16.01195312 -11 16 C-11 15.67 -11 15.34 -11 15 C-7.7 14.34 -4.4 13.68 -1 13 C-1.103125 11.55625 -1.20625 10.1125 -1.3125 8.625 C-1.37050781 7.81289062 -1.42851563 7.00078125 -1.48828125 6.1640625 C-1.82990528 3.62078662 -1.82990528 3.62078662 -5 2 C-7.05709596 1.75944532 -7.05709596 1.75944532 -9.1875 1.875 C-10.445625 1.91625 -11.70375 1.9575 -13 2 C-12.67 1.34 -12.34 0.68 -12 0 C-7.28927624 -0.84947478 -4.68627018 -1.17156754 0 0 Z " fill="#35908E" transform="translate(86,184)"/>
<path d="M0 0 C3.61703101 2.83071992 3.13119582 3.78717492 4 9 C-5.9 9 -15.8 9 -26 9 C-25.67 8.34 -25.34 7.68 -25 7 C-11.635 7.495 -11.635 7.495 2 8 C0.5 4 0.5 4 -2 3 C-1 1 -1 1 0 0 Z " fill="#1D7C75" transform="translate(140,137)"/>
<path d="M0 0 C1.65 0 3.3 0 5 0 C4.34 1.32 3.68 2.64 3 4 C2.34 4 1.68 4 1 4 C1 4.66 1 5.32 1 6 C-1.97 6 -4.94 6 -8 6 C-8 4.68 -8 3.36 -8 2 C-5.36 2 -2.72 2 0 2 C0 1.34 0 0.68 0 0 Z " fill="#338680" transform="translate(140,185)"/>
<path d="M0 0 C0.99 0 1.98 0 3 0 C3 7.59 3 15.18 3 23 C2.34 23 1.68 23 1 23 C0.67 24.32 0.34 25.64 0 27 C-0.02689216 25.52093108 -0.04634621 24.04172517 -0.0625 22.5625 C-0.07410156 21.73878906 -0.08570313 20.91507813 -0.09765625 20.06640625 C0 18 0 18 1 17 C1.36760731 14.67182036 1.70241581 12.3381615 2 10 C1.01 10 0.02 10 -1 10 C-1 9.34 -1 8.68 -1 8 C-0.34 7.67 0.32 7.34 1 7 C1.65772428 3.97065509 1.65772428 3.97065509 2 1 C1.34 0.67 0.68 0.34 0 0 Z M-2 1 C0 2 0 2 0 2 Z " fill="#0F7879" transform="translate(61,125)"/>
<path d="M0 0 C2.90083782 2.83278298 5.42628418 5.86980508 8 9 C5.50907189 10.24546405 4.58919267 9.7767578 2 9 C2 10.65 2 12.3 2 14 C-0.125 12.625 -0.125 12.625 -2 10 C-1.75143398 6.55249736 -0.93770846 3.31999482 0 0 Z " fill="#C4E4E2" transform="translate(40,117)"/>
<path d="M0 0 C0.33 0.66 0.66 1.32 1 2 C0.2884375 3.6396875 0.2884375 3.6396875 -0.4375 5.3125 C-2.76664994 11.04009143 -2.25013223 16.92271322 -2 23 C-4.84740905 20.15259095 -5.16876253 17.62231917 -5.25 13.75 C-5.19692491 8.32749487 -3.93119869 3.93119869 0 0 Z " fill="#3D8D89" transform="translate(32,80)"/>
<path d="M0 0 C0.33 0 0.66 0 1 0 C0.94199219 0.60585937 0.88398438 1.21171875 0.82421875 1.8359375 C0.47720724 8.28043702 1.7198638 12.374872 4.90625 17.96875 C6 20 6 20 6 22 C6.66 22 7.32 22 8 22 C7.67 23.32 7.34 24.64 7 26 C0.67807104 18.16716978 -1.78711896 12.17763114 -1 2 C-0.67 1.34 -0.34 0.68 0 0 Z " fill="#1A7B77" transform="translate(30,88)"/>
<path d="M0 0 C1.45606519 4.52092968 0.27032841 7.51648796 -1 12 C-0.484375 11.67 0.03125 11.34 0.5625 11 C3.78026512 9.67989123 6.5570528 9.86757895 10 10 C8.24135754 12.1793144 7.30604 12.93686419 4.51953125 13.51171875 C3.62621094 13.56972656 2.73289062 13.62773437 1.8125 13.6875 C0.91144531 13.75324219 0.01039062 13.81898438 -0.91796875 13.88671875 C-1.94857422 13.94279297 -1.94857422 13.94279297 -3 14 C-2.88512252 12.41590006 -2.75765492 10.83271037 -2.625 9.25 C-2.55539063 8.36828125 -2.48578125 7.4865625 -2.4140625 6.578125 C-2.00149945 4.00933618 -1.28839043 2.24158985 0 0 Z " fill="#3D8C88" transform="translate(30,154)"/>
<path d="M0 0 C2.40449252 2.16404327 3.85952301 3.5972993 4.9375 6.6875 C5.288125 7.450625 5.63875 8.21375 6 9 C8.46823091 9.82704005 8.46823091 9.82704005 11 10 C11.66 10.33 12.32 10.66 13 11 C14.87056791 11.2275015 16.74685958 11.40962811 18.625 11.5625 C19.62789062 11.64628906 20.63078125 11.73007813 21.6640625 11.81640625 C22.82035156 11.90728516 22.82035156 11.90728516 24 12 C24 12.33 24 12.66 24 13 C19.38 13 14.76 13 10 13 C9.67 12.34 9.34 11.68 9 11 C7.02111039 10.27306096 5.02045442 9.60183749 3 9 C3 8.34 3 7.68 3 7 C2.34 7 1.68 7 1 7 C0.67 4.69 0.34 2.38 0 0 Z " fill="#4E9894" transform="translate(174,156)"/>
<path d="M0 0 C1 2 1 2 1 6 C0.01 6.99 -0.98 7.98 -2 9 C7.57 9 17.14 9 27 9 C27 9.33 27 9.66 27 10 C17.1 10 7.2 10 -3 10 C-2 3 -2 3 0 0 Z " fill="#439089" transform="translate(116,137)"/>
<path d="M0 0 C0.99 0 1.98 0 3 0 C1.55260109 3.0478881 -0.12466976 5.82138128 -2 8.625 C-2.7734375 9.78902344 -2.7734375 9.78902344 -3.5625 10.9765625 C-5 13 -5 13 -7 15 C-7.34203764 10.72452947 -7.21269922 8.40339507 -5.1875 4.5625 C-4.465625 3.716875 -3.74375 2.87125 -3 2 C-2.01 2 -1.02 2 0 2 C0 1.34 0 0.68 0 0 Z " fill="#1C7D78" transform="translate(34,139)"/>
<path d="M0 0 C2.0625 0.4375 2.0625 0.4375 4 1 C3.67 2.32 3.34 3.64 3 5 C2.67 4.34 2.34 3.68 2 3 C1.54625 3.825 1.0925 4.65 0.625 5.5 C0.08875 6.325 -0.4475 7.15 -1 8 C-1.66 8 -2.32 8 -3 8 C-2.67 11.96 -2.34 15.92 -2 20 C-4.57232706 17.42767294 -4.29786466 16.32102308 -4.3125 12.75 C-4.23537163 7.8523487 -3.63130037 3.63130037 0 0 Z " fill="#B3DFDC" transform="translate(177,136)"/>
<path d="M0 0 C1.77074917 -0.02705729 3.54161711 -0.04642195 5.3125 -0.0625 C6.29863281 -0.07410156 7.28476563 -0.08570313 8.30078125 -0.09765625 C11 0 11 0 14 1 C14 1.66 14 2.32 14 3 C14.99 3.33 15.98 3.66 17 4 C17 4.33 17 4.66 17 5 C15.02 5 13.04 5 11 5 C10.67 3.68 10.34 2.36 10 1 C9.29875 1.350625 8.5975 1.70125 7.875 2.0625 C4.49731414 3.1639193 2.41919407 2.79516141 -1 2 C-0.67 1.34 -0.34 0.68 0 0 Z M1 3 C3 4 3 4 3 4 Z " fill="#29837F" transform="translate(189,132)"/>
<path d="M0 0 C3.3063908 0.55106513 6.19982126 1.09987871 9 3 C9.75 5.125 9.75 5.125 10 7 C8.02 7.99 8.02 7.99 6 9 C4.5 7.625 4.5 7.625 3 6 C3 5.34 3 4.68 3 4 C2.34 4 1.68 4 1 4 C0.67 2.68 0.34 1.36 0 0 Z " fill="#F3FBF9" transform="translate(41,125)"/>
<path d="M0 0 C2.29013653 3.4352048 2.17842973 4.985331 2 9 C5.465 8.505 5.465 8.505 9 8 C6.78065836 11.32901247 5.65316671 11.75023244 2 13 C-0.63994297 10.36005703 -1.22395215 8.43966299 -1.25 4.8125 C-1 1 -1 1 0 0 Z " fill="#98D6D2" transform="translate(25,159)"/>
<path d="M0 0 C2.4178712 -0.10826289 4.83087556 -0.18739789 7.25 -0.25 C8.27287109 -0.30027344 8.27287109 -0.30027344 9.31640625 -0.3515625 C12.7954969 -0.41911766 14.64548682 -0.26476301 17.46875 1.84375 C19.31212929 4.439529 19.34636113 5.88274982 19 9 C17.125 8.8125 17.125 8.8125 15 8 C13.75 5.4375 13.75 5.4375 13 3 C13.33 2.67 13.66 2.34 14 2 C7.07 1.505 7.07 1.505 0 1 C0 0.67 0 0.34 0 0 Z " fill="#86CBC8" transform="translate(153,128)"/>
<path d="M0 0 C0.66 0 1.32 0 2 0 C1.56869049 5.22276604 -0.35285664 8.39366597 -3.5625 12.375 C-3.98724609 12.92027344 -4.41199219 13.46554688 -4.84960938 14.02734375 C-5.88963587 15.35951252 -6.94344238 16.68090382 -8 18 C-8.578125 16.08984375 -8.578125 16.08984375 -9 14 C-7.75 12.5625 -7.75 12.5625 -6 11 C-5.484375 10.113125 -4.96875 9.22625 -4.4375 8.3125 C-3.963125 7.549375 -3.48875 6.78625 -3 6 C-2.34 6 -1.68 6 -1 6 C-0.67 4.02 -0.34 2.04 0 0 Z " fill="#1E7C75" transform="translate(88,68)"/>
<path d="M0 0 C0.99 0.33 1.98 0.66 3 1 C2.67 1.825 2.34 2.65 2 3.5 C0.80885335 7.66901329 0.71645459 10.6759325 1 15 C2.60480784 18.12606964 2.60480784 18.12606964 4.9453125 18.51171875 C5.66460938 18.56972656 6.38390625 18.62773437 7.125 18.6875 C8.40375 18.790625 9.6825 18.89375 11 19 C11 19.33 11 19.66 11 20 C7.37 20 3.74 20 0 20 C-1.50156874 16.99686252 -1.09281204 14.20932478 -1.0625 10.875 C-1.05347656 9.59367188 -1.04445313 8.31234375 -1.03515625 6.9921875 C-1.02355469 6.00476563 -1.01195313 5.01734375 -1 4 C-0.34 4 0.32 4 1 4 C0.67 2.68 0.34 1.36 0 0 Z " fill="#28847E" transform="translate(24,153)"/>
<path d="M0 0 C3.125 -0.1875 3.125 -0.1875 6 0 C6 0.66 6 1.32 6 2 C4.35 2.33 2.7 2.66 1 3 C0.67 9.6 0.34 16.2 0 23 C-0.33 23 -0.66 23 -1 23 C-1.16939049 20.79187393 -1.33539222 18.58348776 -1.5 16.375 C-1.5928125 15.14523438 -1.685625 13.91546875 -1.78125 12.6484375 C-2.33005894 3.49508841 -2.33005894 3.49508841 0 0 Z " fill="#24827D" transform="translate(65,95)"/>
<path d="M0 0 C0.33 1.32 0.66 2.64 1 4 C-2.66291938 6.47785723 -5.6109185 7.48964169 -10 8 C-9.1875 6.0625 -9.1875 6.0625 -8 4 C-7.01 3.67 -6.02 3.34 -5 3 C-4.67 2.34 -4.34 1.68 -4 1 C-1.9375 0.375 -1.9375 0.375 0 0 Z " fill="#E8F9F9" transform="translate(49,161)"/>
<path d="M0 0 C1.66666667 1.66666667 3.33333333 3.33333333 5 5 C5.78375 5.680625 6.5675 6.36125 7.375 7.0625 C9 9 9 9 9 11.0625 C7.75355723 13.47748287 6.26167897 14.54085228 4 16 C4 15.01 4 14.02 4 13 C4.66 13 5.32 13 6 13 C5.81171228 10.55519921 5.81171228 10.55519921 5 8 C3.06616713 6.69934079 3.06616713 6.69934079 1 6 C0 5 0 5 -0.0625 2.4375 C-0.041875 1.633125 -0.02125 0.82875 0 0 Z " fill="#297F7D" transform="translate(34,122)"/>
<path d="M0 0 C1.32 0 2.64 0 4 0 C4.20086443 3.71599191 4.1519437 4.77208445 2 8 C3.98 7.34 5.96 6.68 8 6 C7.34 7.32 6.68 8.64 6 10 C3.69 10 1.38 10 -1 10 C-0.34 9.67 0.32 9.34 1 9 C0.67 6.03 0.34 3.06 0 0 Z " fill="#75C6C3" transform="translate(167,189)"/>
<path d="M0 0 C0.33 0 0.66 0 1 0 C1.33 1.98 1.66 3.96 2 6 C2.99 6 3.98 6 5 6 C6.2684375 6.0309375 6.2684375 6.0309375 7.5625 6.0625 C10.00907507 6.17218753 10.00907507 6.17218753 12 5 C12.33 6.32 12.66 7.64 13 9 C9.94306678 10.52846661 7.37015453 10.23242445 4 10 C1.5625 8.9375 1.5625 8.9375 0 7 C-0.25 3.3125 -0.25 3.3125 0 0 Z " fill="#8ACCC8" transform="translate(70,189)"/>
<path d="M0 0 C0.33 0 0.66 0 1 0 C1 5.28 1 10.56 1 16 C-1 15 -1 15 -2 12 C-2.11740122 10.315429 -2.17506545 8.62611123 -2.1875 6.9375 C-2.20167969 6.05964844 -2.21585937 5.18179688 -2.23046875 4.27734375 C-2 2 -2 2 0 0 Z " fill="#F9FCFC" transform="translate(111,141)"/>
<path d="M0 0 C0.33 0 0.66 0 1 0 C0.67 4.62 0.34 9.24 0 14 C-0.99 14 -1.98 14 -3 14 C-3.56359649 4.41885965 -3.56359649 4.41885965 0 0 Z " fill="#F4FCFE" transform="translate(179,138)"/>
<path d="M0 0 C0.33 0 0.66 0 1 0 C1 2.97 1 5.94 1 9 C5.32424371 8.03414688 5.32424371 8.03414688 8.25 5 C8.4975 4.34 8.745 3.68 9 3 C9.66 2.34 10.32 1.68 11 1 C11 3.64 11 6.28 11 9 C6.92630576 11.03684712 4.41062136 11.0257259 0 10 C0 6.7 0 3.4 0 0 Z " fill="#8FCFD0" transform="translate(182,187)"/>
<path d="M0 0 C0.99 0 1.98 0 3 0 C3.08121924 1.60332791 3.13929134 3.20784026 3.1875 4.8125 C3.22230469 5.70582031 3.25710937 6.59914062 3.29296875 7.51953125 C3 10 3 10 1.67578125 11.82421875 C0 13 0 13 -3 13 C-3 12.34 -3 11.68 -3 11 C-2.01 11 -1.02 11 0 11 C0 7.37 0 3.74 0 0 Z " fill="#1B7F79" transform="translate(67,187)"/>
<path d="M0 0 C0.66 0 1.32 0 2 0 C2.04241723 2.33294775 2.04092937 4.66702567 2 7 C1.67 7.33 1.34 7.66 1 8 C0.76636119 9.84891946 0.58696365 11.70488031 0.4375 13.5625 C0.35371094 14.57441406 0.26992188 15.58632812 0.18359375 16.62890625 C0.12300781 17.41136719 0.06242187 18.19382813 0 19 C-0.33 19 -0.66 19 -1 19 C-1.22114415 16.20880221 -1.42743301 13.4178788 -1.625 10.625 C-1.68945312 9.8309375 -1.75390625 9.036875 -1.8203125 8.21875 C-1.96058587 6.14971776 -1.98758237 4.07374464 -2 2 C-1.34 1.34 -0.68 0.68 0 0 Z " fill="#1D8988" transform="translate(61,135)"/>
<path d="M0 0 C0.66 0.33 1.32 0.66 2 1 C1.83628906 1.50015625 1.67257813 2.0003125 1.50390625 2.515625 C0.8121089 5.9263468 0.89495335 9.28735757 0.9375 12.75 C0.94201172 13.44738281 0.94652344 14.14476563 0.95117188 14.86328125 C0.9628998 16.57555803 0.98083347 18.28779033 1 20 C0.34 20 -0.32 20 -1 20 C-2.38670401 13.41315598 -3.50454574 6.01175041 0 0 Z " fill="#24807D" transform="translate(18,82)"/>
<path d="M0 0 C-0.66 0.66 -1.32 1.32 -2 2 C-2.99 2 -3.98 2 -5 2 C-5 2.66 -5 3.32 -5 4 C-10.17578125 7.22265625 -10.17578125 7.22265625 -12 8 C-12.99 7.67 -13.98 7.34 -15 7 C-14.34 7 -13.68 7 -13 7 C-12.67 5.35 -12.34 3.7 -12 2 C-10.35 2 -8.7 2 -7 2 C-6.67 1.34 -6.34 0.68 -6 0 C-2.49056604 -1.24528302 -2.49056604 -1.24528302 0 0 Z " fill="#38908A" transform="translate(41,65)"/>
<path d="M0 0 C0.33 0.66 0.66 1.32 1 2 C0.67 2.66 0.34 3.32 0 4 C-0.99 4 -1.98 4 -3 4 C-3 4.99 -3 5.98 -3 7 C-6.00313748 8.50156874 -8.79067522 8.09281204 -12.125 8.0625 C-13.40632812 8.05347656 -14.68765625 8.04445312 -16.0078125 8.03515625 C-17.48894531 8.01775391 -17.48894531 8.01775391 -19 8 C-19 7.67 -19 7.34 -19 7 C-18.41992188 6.96261719 -17.83984375 6.92523438 -17.2421875 6.88671875 C-10.32001755 6.30415989 -5.4577968 4.40822049 0 0 Z " fill="#348A86" transform="translate(142,162)"/>
<path d="M0 0 C2.31 0 4.62 0 7 0 C5.68 0.33 4.36 0.66 3 1 C2.74969023 3.41619823 2.74969023 3.41619823 3 6 C3.99 6.66 4.98 7.32 6 8 C5.67 8.99 5.34 9.98 5 11 C1.125 9.125 1.125 9.125 0 8 C-0.14115161 5.32941149 -0.04247107 2.67567762 0 0 Z " fill="#2B8480" transform="translate(115,151)"/>
<path d="M0 0 C4.43458973 1.3937282 6.87378374 3.60582235 10 7 C9.01 7.33 8.02 7.66 7 8 C6.113125 7.38125 5.22625 6.7625 4.3125 6.125 C0.26025533 3.52544681 -2.26129991 3.3268069 -7 3 C-7 2.67 -7 2.34 -7 2 C-3.535 1.505 -3.535 1.505 0 1 C0 0.67 0 0.34 0 0 Z " fill="#9AD7D4" transform="translate(133,129)"/>
<path d="M0 0 C1.4656401 0.03315928 2.93087264 0.09269146 4.39453125 0.17578125 C5.14412109 0.19833984 5.89371094 0.22089844 6.66601562 0.24414062 C8.51387595 0.30298968 10.36070792 0.39267187 12.20703125 0.48828125 C11.87703125 1.14828125 11.54703125 1.80828125 11.20703125 2.48828125 C8.94470267 2.74582965 6.66954305 2.89456295 4.39453125 2.98828125 C-1.49433723 3.18605546 -1.49433723 3.18605546 -6.79296875 5.48828125 C-5.14790836 1.35937475 -4.53092509 0.58328078 0 0 Z " fill="#217E7C" transform="translate(189.79296875,125.51171875)"/>
<path d="M0 0 C0.53625 0.226875 1.0725 0.45375 1.625 0.6875 C0.635 1.0175 -0.355 1.3475 -1.375 1.6875 C-1.705 2.3475 -2.035 3.0075 -2.375 3.6875 C-1.055 4.0175 0.265 4.3475 1.625 4.6875 C0.33849294 5.38460731 -0.95440665 6.06992876 -2.25 6.75 C-3.32894531 7.32427734 -3.32894531 7.32427734 -4.4296875 7.91015625 C-5.07164063 8.16667969 -5.71359375 8.42320313 -6.375 8.6875 C-7.035 8.3575 -7.695 8.0275 -8.375 7.6875 C-8.045 7.0275 -7.715 6.3675 -7.375 5.6875 C-6.715 5.6875 -6.055 5.6875 -5.375 5.6875 C-5.375 5.0275 -5.375 4.3675 -5.375 3.6875 C-6.365 3.3575 -7.355 3.0275 -8.375 2.6875 C-2.95961538 -0.38942308 -2.95961538 -0.38942308 0 0 Z " fill="#BDE4E3" transform="translate(61.375,55.3125)"/>
<path d="M0 0 C2.27734375 -0.3984375 2.27734375 -0.3984375 4.9375 -0.375 C6.25041016 -0.38660156 6.25041016 -0.38660156 7.58984375 -0.3984375 C10.38440081 0.06354762 11.25774945 0.82649931 13 3 C10.39417629 3.93065133 9.35801776 4.14917407 6.75 3.0625 C6.1725 2.711875 5.595 2.36125 5 2 C4.67 2.33 4.34 2.66 4 3 C2.00041636 3.04080783 -0.00045254 3.04254356 -2 3 C-1.34 2.01 -0.68 1.02 0 0 Z " fill="#147970" transform="translate(80,134)"/>
<path d="M0 0 C0.33 0 0.66 0 1 0 C1.4940239 6.29880478 1.4940239 6.29880478 -0.9375 9.75 C-1.618125 10.4925 -2.29875 11.235 -3 12 C-3.33 12.99 -3.66 13.98 -4 15 C-6.0625 15.6875 -6.0625 15.6875 -8 16 C-6.75023244 12.34683329 -6.32901247 11.21934164 -3 9 C-1.99194445 6.82102508 -1.99194445 6.82102508 -1.3125 4.375 C-1.06113281 3.55773437 -0.80976562 2.74046875 -0.55078125 1.8984375 C-0.36902344 1.27195312 -0.18726562 0.64546875 0 0 Z " fill="#318C88" transform="translate(95,66)"/>
<path d="M0 0 C0.66 0 1.32 0 2 0 C2.02578125 0.62648437 2.0515625 1.25296875 2.078125 1.8984375 C2.13484375 2.71570312 2.1915625 3.53296875 2.25 4.375 C2.29640625 5.18710937 2.3428125 5.99921875 2.390625 6.8359375 C2.78073016 9.17948782 2.78073016 9.17948782 4.984375 10.1640625 C5.64953125 10.43992187 6.3146875 10.71578125 7 11 C7.33 11.66 7.66 12.32 8 13 C6.35 12.67 4.7 12.34 3 12 C2.67 11.01 2.34 10.02 2 9 C1.34 9 0.68 9 0 9 C0 6.03 0 3.06 0 0 Z " fill="#187771" transform="translate(25,42)"/>
<path d="M0 0 C2.3431213 0.25561323 4.67843403 0.59270772 7 1 C7.33 1.66 7.66 2.32 8 3 C7.34 3 6.68 3 6 3 C6 3.66 6 4.32 6 5 C4.1875 6.0625 4.1875 6.0625 2 7 C1.01 6.67 0.02 6.34 -1 6 C-0.34 5.01 0.32 4.02 1 3 C0.67 2.01 0.34 1.02 0 0 Z " fill="#1D7E81" transform="translate(115,167)"/>
<path d="M0 0 C2 3 2 3 2 5 C2.66 5 3.32 5 4 5 C7.875 11.625 7.875 11.625 9 15 C7.68 14.67 6.36 14.34 5 14 C4.731875 12.865625 4.46375 11.73125 4.1875 10.5625 C3.795625 9.386875 3.40375 8.21125 3 7 C2.01 6.67 1.02 6.34 0 6 C0 4.02 0 2.04 0 0 Z " fill="#B9E0E0" transform="translate(27,98)"/>
<path d="M0 0 C0.33 0 0.66 0 1 0 C1.60699767 9.62765745 1.60699767 9.62765745 -0.4375 14.25 C-3.90919968 16.62091686 -6.14327256 16.08979006 -10.171875 15.39453125 C-10.77515625 15.26433594 -11.3784375 15.13414063 -12 15 C-12 14.67 -12 14.34 -12 14 C-11.37351563 13.87882812 -10.74703125 13.75765625 -10.1015625 13.6328125 C-9.28429688 13.46523438 -8.46703125 13.29765625 -7.625 13.125 C-6.40683594 12.88136719 -6.40683594 12.88136719 -5.1640625 12.6328125 C-2.81326077 12.13341068 -2.81326077 12.13341068 -1 10 C-0.53837573 7.56747339 -0.53837573 7.56747339 -0.375 4.875 C-0.30023438 3.96492188 -0.22546875 3.05484375 -0.1484375 2.1171875 C-0.09945312 1.41851562 -0.05046875 0.71984375 0 0 Z " fill="#2E6A65" transform="translate(45,41)"/>
<path d="M0 0 C0.33 0 0.66 0 1 0 C1.33 4.29 1.66 8.58 2 13 C7.7974423 13.24428343 7.7974423 13.24428343 13 11 C12.67 12.32 12.34 13.64 12 15 C10.18757948 15.02687279 8.37504767 15.04633715 6.5625 15.0625 C5.55316406 15.07410156 4.54382813 15.08570313 3.50390625 15.09765625 C1 15 1 15 0 14 C-0.07271741 11.64686445 -0.08370868 9.29166332 -0.0625 6.9375 C-0.05347656 5.64714844 -0.04445312 4.35679687 -0.03515625 3.02734375 C-0.02355469 2.02832031 -0.01195312 1.02929688 0 0 Z " fill="#398E8B" transform="translate(179,185)"/>
<path d="M0 0 C1.65 0 3.3 0 5 0 C5 0.99 5 1.98 5 3 C5.928125 2.484375 6.85625 1.96875 7.8125 1.4375 C11 0 11 0 14 1 C9.375 5.875 9.375 5.875 6 7 C5.566875 6.21625 5.13375 5.4325 4.6875 4.625 C3.10779753 1.78301625 3.10779753 1.78301625 0 0 Z " fill="#328C87" transform="translate(89,184)"/>
<path d="M0 0 C0.66 0 1.32 0 2 0 C2 4.62 2 9.24 2 14 C1.34 14 0.68 14 0 14 C-0.19393875 11.85473901 -0.37998676 9.70876323 -0.5625 7.5625 C-0.71912109 5.77005859 -0.71912109 5.77005859 -0.87890625 3.94140625 C-0.91886719 2.97074219 -0.95882812 2.00007812 -1 1 C-0.67 0.67 -0.34 0.34 0 0 Z " fill="#B3EDEE" transform="translate(101,185)"/>
<path d="M0 0 C-1 2 -1 2 -4.0625 3.125 C-5.5165625 3.558125 -5.5165625 3.558125 -7 4 C-7.33 6.31 -7.66 8.62 -8 11 C-8.66 10.67 -9.32 10.34 -10 10 C-10.48468708 3.57789614 -10.48468708 3.57789614 -8.375 1.0625 C-5.43969547 -0.25066255 -3.18136394 -0.21691118 0 0 Z " fill="#B3ECF0" transform="translate(81,185)"/>
<path d="M0 0 C0.33 0 0.66 0 1 0 C1.22557036 5.41368876 0.8012673 9.85352199 -1 15 C-3.5 17.0625 -3.5 17.0625 -6 18 C-6.66 17.67 -7.32 17.34 -8 17 C-7.236875 16.4225 -6.47375 15.845 -5.6875 15.25 C-1.58830674 11.25561566 -1.06061236 5.40653618 0 0 Z " fill="#2E8685" transform="translate(214,147)"/>
<path d="M0 0 C3.12863755 2.42237086 3.9408617 3.57485612 4.49609375 7.56640625 C4.47675781 8.88511719 4.45742187 10.20382813 4.4375 11.5625 C4.44458984 12.23474609 4.45167969 12.90699219 4.45898438 13.59960938 C4.41996817 16.62186465 4.35977019 18.53717544 2.47265625 20.96484375 C1.74369141 21.47724609 1.74369141 21.47724609 1 22 C1 20.68 1 19.36 1 18 C1.66 18 2.32 18 3 18 C3 14.04 3 10.08 3 6 C2.34 6 1.68 6 1 6 C0.67 4.02 0.34 2.04 0 0 Z " fill="#338A83" transform="translate(206,137)"/>
<path d="M0 0 C-0.72316406 0.81404297 -0.72316406 0.81404297 -1.4609375 1.64453125 C-2.40839844 2.71767578 -2.40839844 2.71767578 -3.375 3.8125 C-4.31472656 4.87404297 -4.31472656 4.87404297 -5.2734375 5.95703125 C-7.140599 8.08803819 -7.140599 8.08803819 -9 11 C-9.30769231 4.23076923 -9.30769231 4.23076923 -7 1 C-4.0449252 -1.00182486 -3.50436101 -1.16812034 0 0 Z " fill="#27827E" transform="translate(116,131)"/>
<path d="M0 0 C6.93 0.495 6.93 0.495 14 1 C13.67 1.66 13.34 2.32 13 3 C9.04 3 5.08 3 1 3 C0.67 2.01 0.34 1.02 0 0 Z " fill="#CFF7F9" transform="translate(186,165)"/>
<path d="M0 0 C0.33 0 0.66 0 1 0 C1.07427838 3.34252724 1.06546953 5.8035914 0 9 C-0.14459328 10.3522149 -0.26856711 11.70674766 -0.375 13.0625 C-0.58125 14.361875 -0.7875 15.66125 -1 17 C-1.99 17.66 -2.98 18.32 -4 19 C-3.34 17.02 -2.68 15.04 -2 13 C-2.66 13 -3.32 13 -4 13 C-3.29666462 10.02277453 -2.41751463 7.14743457 -1.4375 4.25 C-1.16808594 3.45078125 -0.89867187 2.6515625 -0.62109375 1.828125 C-0.41613281 1.22484375 -0.21117187 0.6215625 0 0 Z " fill="#389293" transform="translate(147,143)"/>
<path d="M0 0 C2.36810318 0.94724127 3.75207953 1.65291134 5.25 3.75 C6.19251213 6.57753638 6.1345485 9.03993304 6 12 C4.0625 11.375 4.0625 11.375 2 10 C1.3125 7.125 1.3125 7.125 1 4 C0.68325425 2.66262906 0.35729936 1.32711192 0 0 Z " fill="#B4E7E6" transform="translate(141,136)"/>
<path d="M0 0 C1.9375 0.75 1.9375 0.75 4 2 C4.75 4.125 4.75 4.125 5 6 C2.69 5.67 0.38 5.34 -2 5 C-2.99 6.485 -2.99 6.485 -4 8 C-4.66 8 -5.32 8 -6 8 C-4.55746343 4.63408134 -2.66735273 2.48952921 0 0 Z " fill="#348885" transform="translate(44,136)"/>
<path d="M0 0 C1.65 0 3.3 0 5 0 C5.33 0.66 5.66 1.32 6 2 C8.01669827 3.13350534 8.01669827 3.13350534 10 4 C9.125 8.75 9.125 8.75 8 11 C7.38511719 10.06027344 7.38511719 10.06027344 6.7578125 9.1015625 C6.21898437 8.28429687 5.68015625 7.46703125 5.125 6.625 C4.32449219 5.40683594 4.32449219 5.40683594 3.5078125 4.1640625 C2.04134945 1.92405904 2.04134945 1.92405904 0 0 Z " fill="#348B85" transform="translate(138,131)"/>
<path d="M0 0 C0 1.98 0 3.96 0 6 C-0.33 5.01 -0.66 4.02 -1 3 C-1.7425 3.350625 -2.485 3.70125 -3.25 4.0625 C-6.1322726 5.04509293 -7.21176345 5.0326802 -10 4 C-4.5 0 -4.5 0 0 0 Z " fill="#358582" transform="translate(65,122)"/>
<path d="M0 0 C0.99 0.495 0.99 0.495 2 1 C2 1.66 2 2.32 2 3 C3.32 3 4.64 3 6 3 C6 2.34 6 1.68 6 1 C6.66 1 7.32 1 8 1 C8 2.98 8 4.96 8 7 C7.67 6.01 7.34 5.02 7 4 C5.35 4.33 3.7 4.66 2 5 C2 5.66 2 6.32 2 7 C1.34 7 0.68 7 0 7 C0 4.69 0 2.38 0 0 Z " fill="#408A86" transform="translate(92,191)"/>
<path d="M0 0 C3.11398457 -0.21231713 5.45304074 -0.21590497 8.375 0.9375 C10.99520534 4.26314524 10.30779383 7.9217317 10 12 C9.67 12 9.34 12 9 12 C8.87625 10.88625 8.7525 9.7725 8.625 8.625 C8.3534187 4.96896323 8.3534187 4.96896323 6 3 C3.67724823 2.59952556 1.34260643 2.2602896 -1 2 C-0.67 1.34 -0.34 0.68 0 0 Z " fill="#6DC9C6" transform="translate(148,184)"/>
<path d="M0 0 C0.33 0 0.66 0 1 0 C1.24858198 2.77034137 1.47452879 5.53939069 1.6875 8.3125 C1.76033203 9.09818359 1.83316406 9.88386719 1.90820312 10.69335938 C1.96298828 11.45068359 2.01777344 12.20800781 2.07421875 12.98828125 C2.13182373 13.68477783 2.18942871 14.38127441 2.2487793 15.09887695 C1.92238821 17.59309425 0.8898183 18.4211918 -1 20 C-1.38218767 18.34385343 -1.71395102 16.67542976 -2 15 C-1.67 14.67 -1.34 14.34 -1 14 C-0.76472227 11.65012738 -0.58613583 9.29443961 -0.4375 6.9375 C-0.35371094 5.64714844 -0.26992187 4.35679687 -0.18359375 3.02734375 C-0.12300781 2.02832031 -0.06242188 1.02929688 0 0 Z " fill="#85C8C4" transform="translate(210,142)"/>
<path d="M0 0 C4.22271781 2.53363068 6.78310162 4.56620325 9 9 C7.68 9 6.36 9 5 9 C4.67 8.01 4.34 7.02 4 6 C1.99983534 4.79117904 1.99983534 4.79117904 0 4 C0 2.68 0 1.36 0 0 Z " fill="#2D8781" transform="translate(25,113)"/>
<path d="M0 0 C0 0.66 0 1.32 0 2 C-0.66 2 -1.32 2 -2 2 C-2.33 2.99 -2.66 3.98 -3 5 C-4.65 5.33 -6.3 5.66 -8 6 C-7.6875 4.125 -7.6875 4.125 -7 2 C-4 0 -4 0 0 0 Z " fill="#ECFBFB" transform="translate(56,59)"/>
<path d="M0 0 C1.65 0 3.3 0 5 0 C5.33 0.66 5.66 1.32 6 2 C4.35 2 2.7 2 1 2 C1.19471111 3.94999129 1.19471111 3.94999129 2 6 C3.9837767 7.28436734 3.9837767 7.28436734 6 8 C5 9 5 9 2.4375 9.0625 C1.633125 9.041875 0.82875 9.02125 0 9 C0 6.03 0 3.06 0 0 Z " fill="#36837D" transform="translate(183,187)"/>
<path d="M0 0 C0.66 0 1.32 0 2 0 C2.33 2.64 2.66 5.28 3 8 C0.525 7.01 0.525 7.01 -2 6 C-1.125 1.125 -1.125 1.125 0 0 Z " fill="#348481" transform="translate(165,190)"/>
<path d="M0 0 C0.66 0 1.32 0 2 0 C2.33 3.63 2.66 7.26 3 11 C2.01 10.67 1.02 10.34 0 10 C-1.125 3.375 -1.125 3.375 0 0 Z " fill="#1E7876" transform="translate(146,187)"/>
<path d="M0 0 C3.3 0 6.6 0 10 0 C10 0.66 10 1.32 10 2 C7.36 2 4.72 2 2 2 C2 3.32 2 4.64 2 6 C1.34 6 0.68 6 0 6 C0 4.02 0 2.04 0 0 Z " fill="#ADE8E8" transform="translate(130,185)"/>
<path d="M0 0 C0.33 0.66 0.66 1.32 1 2 C0.34 2 -0.32 2 -1 2 C-1 2.99 -1 3.98 -1 5 C-5.95 5 -10.9 5 -16 5 C-16 4.67 -16 4.34 -16 4 C-15.18015625 3.87882813 -14.3603125 3.75765625 -13.515625 3.6328125 C-12.43796875 3.46523437 -11.3603125 3.29765625 -10.25 3.125 C-9.18265625 2.96257812 -8.1153125 2.80015625 -7.015625 2.6328125 C-4.32291129 2.06776118 -2.36427561 1.36577086 0 0 Z " fill="#288180" transform="translate(205,165)"/>
<path d="M0 0 C0.99 0.33 1.98 0.66 3 1 C3.48828125 6.95703125 3.48828125 6.95703125 3 9 C0.525 10.485 0.525 10.485 -2 12 C-1.34 8.04 -0.68 4.08 0 0 Z " fill="#107878" transform="translate(215,146)"/>
<path d="M0 0 C2.8203125 0.0234375 2.8203125 0.0234375 6.125 0.375 C7.22070312 0.48585938 8.31640625 0.59671875 9.4453125 0.7109375 C10.28835937 0.80632812 11.13140625 0.90171875 12 1 C12.33 2.32 12.66 3.64 13 5 C12.38125 4.690625 11.7625 4.38125 11.125 4.0625 C6.81197706 2.5960722 2.5240004 2.33380974 -2 2 C-1.34 1.34 -0.68 0.68 0 0 Z " fill="#2D8781" transform="translate(125,126)"/>
<path d="M0 0 C-0.99 0.33 -1.98 0.66 -3 1 C-3 1.66 -3 2.32 -3 3 C-6.4019487 5.09350689 -9.05272412 5.17942163 -13 5 C-12.34 4.34 -11.68 3.68 -11 3 C-10.01 3 -9.02 3 -8 3 C-8 2.34 -8 1.68 -8 1 C-5.29120665 -0.35439668 -2.99066732 -0.06501451 0 0 Z " fill="#1E7F79" transform="translate(63,118)"/>
<path d="M0 0 C-2.51066469 3.05906926 -4.90059933 3.75191278 -8.6875 4.6875 C-9.68136719 4.93886719 -10.67523438 5.19023438 -11.69921875 5.44921875 C-12.45847656 5.63097656 -13.21773437 5.81273438 -14 6 C-11.75277763 2.62916645 -10.6694788 2.17939 -7 0.75 C-6.113125 0.39421875 -5.22625 0.0384375 -4.3125 -0.328125 C-2 -1 -2 -1 0 0 Z " fill="#43908B" transform="translate(63,61)"/>
<path d="M0 0 C-1.0725 0.45375 -2.145 0.9075 -3.25 1.375 C-5.88062317 2.50088537 -8.46000396 3.67920206 -11 5 C-11 4.01 -11 3.02 -11 2 C-11.66 1.67 -12.32 1.34 -13 1 C-11.58622218 0.63447197 -10.16879424 0.28304505 -8.75 -0.0625 C-7.96109375 -0.25972656 -7.1721875 -0.45695313 -6.359375 -0.66015625 C-3.89605178 -1.01497267 -2.34395868 -0.76877544 0 0 Z " fill="#167C7B" transform="translate(42,172)"/>
<path d="M0 0 C0.33 0.99 0.66 1.98 1 3 C1.66 3.33 2.32 3.66 3 4 C0.69 5.65 -1.62 7.3 -4 9 C-4.66 8.34 -5.32 7.68 -6 7 C-4.02 4.69 -2.04 2.38 0 0 Z " fill="#A2DAD5" transform="translate(43,132)"/>
<path d="M0 0 C1.65 0 3.3 0 5 0 C4.67 0.99 4.34 1.98 4 3 C4.66 3.66 5.32 4.32 6 5 C0.46153846 5.36923077 0.46153846 5.36923077 -1.875 3.5 C-2.24625 3.005 -2.6175 2.51 -3 2 C-2.01 2 -1.02 2 0 2 C0 1.34 0 0.68 0 0 Z " fill="#AC2222" transform="translate(34,47)"/>
<path d="M0 0 C1.65 0 3.3 0 5 0 C4.67 1.65 4.34 3.3 4 5 C2.68 5.33 1.36 5.66 0 6 C0 4.02 0 2.04 0 0 Z " fill="#B91B27" transform="translate(35,40)"/>
<path d="M0 0 C1.65 0 3.3 0 5 0 C5 1.65 5 3.3 5 5 C3.35 5 1.7 5 0 5 C0 3.35 0 1.7 0 0 Z " fill="#0F7B73" transform="translate(75,189)"/>
<path d="M0 0 C0.66 0 1.32 0 2 0 C2.8125 1.625 2.8125 1.625 3 4 C0.6875 7.25 0.6875 7.25 -2 10 C-2.66 10 -3.32 10 -4 10 C-2.66666667 6.66666667 -1.33333333 3.33333333 0 0 Z " fill="#22817D" transform="translate(140,153)"/>
<path d="M0 0 C2.52259061 1.97420135 2.9929808 2.96745642 3.6875 6.1875 C3.790625 7.115625 3.89375 8.04375 4 9 C2.02 9 0.04 9 -2 9 C-0.68 8.67 0.64 8.34 2 8 C0.6910428 4.87802522 0.6910428 4.87802522 -2 3 C-1 1 -1 1 0 0 Z " fill="#348681" transform="translate(140,137)"/>
<path d="M0 0 C4.62 0 9.24 0 14 0 C14.33 0.66 14.66 1.32 15 2 C12.69 2.33 10.38 2.66 8 3 C8 2.67 8 2.34 8 2 C5.36 1.67 2.72 1.34 0 1 C0 0.67 0 0.34 0 0 Z " fill="#B6E2E1" transform="translate(153,129)"/>
<path d="M0 0 C0.66 0.33 1.32 0.66 2 1 C1.34 2.32 0.68 3.64 0 5 C0.66 5.33 1.32 5.66 2 6 C0.02 6.99 0.02 6.99 -2 8 C-3 5 -3 5 -3 4 C-4.32 3.67 -5.64 3.34 -7 3 C-4.69631264 1.93347808 -2.35981813 0.93578995 0 0 Z " fill="#C9E9E9" transform="translate(48,60)"/>
<path d="M0 0 C0 0.66 0 1.32 0 2 C-2.70716242 2.90238747 -4.23776768 3.11851302 -7.01171875 3.09765625 C-8.14770508 3.09282227 -8.14770508 3.09282227 -9.30664062 3.08789062 C-10.09232422 3.07951172 -10.87800781 3.07113281 -11.6875 3.0625 C-12.48478516 3.05798828 -13.28207031 3.05347656 -14.10351562 3.04882812 C-16.06904257 3.0370585 -18.03453085 3.01912348 -20 3 C-16.40071762 0.60047841 -14.28339005 0.61594069 -10 0.375 C-8.7625 0.30023438 -7.525 0.22546875 -6.25 0.1484375 C-4.16824935 0.05335754 -2.08392082 0 0 0 Z " fill="#86C6C2" transform="translate(95,53)"/>
<path d="M0 0 C-3.01490557 2.00993705 -5.2149927 2.72623341 -8.6875 3.625 C-10.17830078 4.01558594 -10.17830078 4.01558594 -11.69921875 4.4140625 C-12.45847656 4.60742188 -13.21773437 4.80078125 -14 5 C-13.20703125 3.046875 -13.20703125 3.046875 -12 1 C-7.98287242 0.09046168 -4.10897143 -0.12451429 0 0 Z " fill="#368B86" transform="translate(67,53)"/>
<path d="M0 0 C2.97 0.33 5.94 0.66 9 1 C9 1.66 9 2.32 9 3 C5.7 3 2.4 3 -1 3 C-0.67 2.01 -0.34 1.02 0 0 Z " fill="#D1F7F8" transform="translate(121,165)"/>
<path d="M0 0 C0.99 0.33 1.98 0.66 3 1 C0.69 3.64 -1.62 6.28 -4 9 C-4.33 7.68 -4.66 6.36 -5 5 C-2.5625 2.25 -2.5625 2.25 0 0 Z " fill="#22827D" transform="translate(25,73)"/>
<path d="M0 0 C0.66 0.33 1.32 0.66 2 1 C2.28571429 8.42857143 2.28571429 8.42857143 0 12 C-0.66 11.67 -1.32 11.34 -2 11 C-1.855625 10.484375 -1.71125 9.96875 -1.5625 9.4375 C-0.84190099 6.31490429 -0.42733561 3.17449308 0 0 Z " fill="#52B2B0" transform="translate(175,187)"/>
<path d="M0 0 C-4.06849409 2.71232939 -6.16476784 2.30699887 -11 2 C-11.66 1.34 -12.32 0.68 -13 0 C-11.58456585 -0.19658808 -10.16755969 -0.38187546 -8.75 -0.5625 C-7.96109375 -0.66691406 -7.1721875 -0.77132812 -6.359375 -0.87890625 C-3.99467126 -1.00027349 -2.2488963 -0.69633257 0 0 Z " fill="#559C9A" transform="translate(136,164)"/>
<path d="M0 0 C0.33 0.99 0.66 1.98 1 3 C0.01 3.33 -0.98 3.66 -2 4 C-2.33 4.99 -2.66 5.98 -3 7 C-4.32 7 -5.64 7 -7 7 C-7 6.34 -7 5.68 -7 5 C-5.46875 3.7109375 -5.46875 3.7109375 -3.5 2.375 C-2.8503125 1.92898437 -2.200625 1.48296875 -1.53125 1.0234375 C-1.0259375 0.68570313 -0.520625 0.34796875 0 0 Z " fill="#B9E5E0" transform="translate(47,158)"/>
<path d="M0 0 C4.29 0 8.58 0 13 0 C13 0.33 13 0.66 13 1 C8.38 1.66 3.76 2.32 -1 3 C-0.67 2.01 -0.34 1.02 0 0 Z " fill="#D6F8F6" transform="translate(187,130)"/>
<path d="M0 0 C0.33 0 0.66 0 1 0 C2.19088986 5.38027025 3.2919519 10.45291384 3 16 C0.49399686 13.49399686 0.02945209 11.81405575 -0.09765625 8.30078125 C-0.08605469 7.31464844 -0.07445313 6.32851562 -0.0625 5.3125 C-0.05347656 4.31863281 -0.04445313 3.32476562 -0.03515625 2.30078125 C-0.02355469 1.54152344 -0.01195313 0.78226562 0 0 Z " fill="#D8FAF7" transform="translate(19,88)"/>
<path d="M0 0 C0.99 0 1.98 0 3 0 C1.125 4.75 1.125 4.75 0 7 C-0.99 7 -1.98 7 -3 7 C-2.38722388 4.03824877 -1.74627478 2.61941217 0 0 Z " fill="#8FD9D8" transform="translate(82,82)"/>
<path d="M0 0 C0 0.33 0 0.66 0 1 C-1.65 1 -3.3 1 -5 1 C-5.33 1.99 -5.66 2.98 -6 4 C-7.65 4 -9.3 4 -11 4 C-10.67 3.01 -10.34 2.02 -10 1 C-6.52674819 -0.1577506 -3.63932552 -0.06866652 0 0 Z " fill="#E3FCFD" transform="translate(70,55)"/>
<path d="M0 0 C0.99 0.99 1.98 1.98 3 3 C2.77669287 6.64734979 2.61627165 8.38372835 0 11 C0 7.37 0 3.74 0 0 Z " fill="#187477" transform="translate(46,41)"/>
<path d="M0 0 C0.598125 0.78375 1.19625 1.5675 1.8125 2.375 C3.91085249 5.14574323 3.91085249 5.14574323 7 7 C7 7.66 7 8.32 7 9 C7.66 9.33 8.32 9.66 9 10 C8.01 10 7.02 10 6 10 C6 9.34 6 8.68 6 8 C4.68 8 3.36 8 2 8 C2 6.68 2 5.36 2 4 C1.34 4 0.68 4 0 4 C0 2.68 0 1.36 0 0 Z " fill="#479491" transform="translate(108,157)"/>
<path d="M0 0 C0.33 0 0.66 0 1 0 C1.02694851 1.95825873 1.04637218 3.91662226 1.0625 5.875 C1.07410156 6.96554688 1.08570313 8.05609375 1.09765625 9.1796875 C1 12 1 12 0 14 C-0.99 14 -1.98 14 -3 14 C-2.5359375 13.0409375 -2.5359375 13.0409375 -2.0625 12.0625 C-0.68064597 8.07950896 -0.3463457 4.18349151 0 0 Z " fill="#B0DBDA" transform="translate(51,144)"/>
<path d="M0 0 C0.66 0.33 1.32 0.66 2 1 C1.2884375 1.7734375 1.2884375 1.7734375 0.5625 2.5625 C-1.42809407 5.66782675 -1.65060818 8.36632504 -2 12 C-2.33 12 -2.66 12 -3 12 C-3 8.37 -3 4.74 -3 1 C-2.01 0.67 -1.02 0.34 0 0 Z " fill="#326760" transform="translate(30,37)"/>
<path d="M0 0 C1.65 0 3.3 0 5 0 C5 1.32 5 2.64 5 4 C3.35 4.33 1.7 4.66 0 5 C0 3.35 0 1.7 0 0 Z " fill="#1B7673" transform="translate(58,194)"/>
<path d="M0 0 C0.99 0 1.98 0 3 0 C3 2.31 3 4.62 3 7 C2.01 7 1.02 7 0 7 C0 4.69 0 2.38 0 0 Z " fill="#78C9C9" transform="translate(149,189)"/>
<path d="M0 0 C1.32 0.33 2.64 0.66 4 1 C0.535 3.97 0.535 3.97 -3 7 C-3 5.68 -3 4.36 -3 3 C-2.34 3 -1.68 3 -1 3 C-0.67 2.01 -0.34 1.02 0 0 Z " fill="#2D827C" transform="translate(178,131)"/>
<path d="M0 0 C0.66 0.33 1.32 0.66 2 1 C2 1.66 2 2.32 2 3 C1.34 3 0.68 3 0 3 C0 3.66 0 4.32 0 5 C-1.32 5 -2.64 5 -4 5 C-3.6875 3.0625 -3.6875 3.0625 -3 1 C-2.01 0.67 -1.02 0.34 0 0 Z " fill="#F8FCFA" transform="translate(37,69)"/>
<path d="M0 0 C0.33 0 0.66 0 1 0 C1 1.65 1 3.3 1 5 C-1.40545638 6.20272819 -2.94996953 6.10071472 -5.625 6.0625 C-6.85089844 6.04896484 -6.85089844 6.04896484 -8.1015625 6.03515625 C-9.04128906 6.01775391 -9.04128906 6.01775391 -10 6 C-10 5.67 -10 5.34 -10 5 C-6.7 4.34 -3.4 3.68 0 3 C0 2.01 0 1.02 0 0 Z " fill="#2C8880" transform="translate(85,194)"/>
<path d="M0 0 C1.32 0 2.64 0 4 0 C4 1.65 4 3.3 4 5 C2.68 5 1.36 5 0 5 C0 3.35 0 1.7 0 0 Z " fill="#A0E3E1" transform="translate(167,189)"/>
<path d="M0 0 C1.65 0 3.3 0 5 0 C5 1.32 5 2.64 5 4 C3.35 4 1.7 4 0 4 C0 2.68 0 1.36 0 0 Z " fill="#1F7870" transform="translate(58,186)"/>
<path d="M0 0 C0.33 0 0.66 0 1 0 C1.042721 1.66611905 1.04063832 3.33382885 1 5 C0.67 5.33 0.34 5.66 0 6 C-2.33944736 5.71269945 -4.6739143 5.38063221 -7 5 C-6.67 4.34 -6.34 3.68 -6 3 C-4.02 3 -2.04 3 0 3 C0 2.01 0 1.02 0 0 Z " fill="#358F8B" transform="translate(73,164)"/>
<path d="M0 0 C-2.3129482 2.3129482 -3.47904875 2.49580975 -6.625 3.125 C-7.44226563 3.29257813 -8.25953125 3.46015625 -9.1015625 3.6328125 C-10.04128906 3.81457031 -10.04128906 3.81457031 -11 4 C-7.65667474 -0.27945633 -5.29105716 -0.4070044 0 0 Z " fill="#157974" transform="translate(125,126)"/>
<path d="M0 0 C-3.3 1.32 -6.6 2.64 -10 4 C-10.33 3.34 -10.66 2.68 -11 2 C-10.34 2 -9.68 2 -9 2 C-9 1.34 -9 0.68 -9 0 C-2.25 -1.125 -2.25 -1.125 0 0 Z " fill="#4C9997" transform="translate(53,59)"/>
<path d="M0 0 C0.625 1.8125 0.625 1.8125 1 4 C0.01 5.485 0.01 5.485 -1 7 C-2.32 7 -3.64 7 -5 7 C-4.67 6.01 -4.34 5.02 -4 4 C-3.01 4 -2.02 4 -1 4 C-0.67 2.68 -0.34 1.36 0 0 Z " fill="#2E807C" transform="translate(174,190)"/>
<path d="M0 0 C0.66 0.33 1.32 0.66 2 1 C1.01 3.97 0.02 6.94 -1 10 C-1.33 10 -1.66 10 -2 10 C-2.6875 6.6875 -2.6875 6.6875 -3 3 C-1.5625 1.0625 -1.5625 1.0625 0 0 Z " fill="#53B0AF" transform="translate(146,184)"/>
<path d="M0 0 C0.99 0 1.98 0 3 0 C1.70700306 2.88437779 0.34058637 4.87219421 -2 7 C-2.33 5.35 -2.66 3.7 -3 2 C-2.01 2 -1.02 2 0 2 C0 1.34 0 0.68 0 0 Z " fill="#27827F" transform="translate(34,139)"/>
<path d="M0 0 C3.3 0 6.6 0 10 0 C6.81237635 2.12508244 4.73487777 2.5020163 1 3 C0.67 2.01 0.34 1.02 0 0 Z " fill="#0E7873" transform="translate(180,200)"/>
<path d="M0 0 C0.33 0 0.66 0 1 0 C1.18175781 0.84884766 1.18175781 0.84884766 1.3671875 1.71484375 C1.53476563 2.44832031 1.70234375 3.18179688 1.875 3.9375 C2.03742188 4.66839844 2.19984375 5.39929688 2.3671875 6.15234375 C2.82961523 8.20700294 2.82961523 8.20700294 5 9 C4.01 9.33 3.02 9.66 2 10 C-0.4294516 6.3558226 -0.16179575 4.28758728 0 0 Z " fill="#6CC9C6" transform="translate(143,189)"/>
<path d="M0 0 C0.6875 1.6875 0.6875 1.6875 1 4 C-0.4375 6.75 -0.4375 6.75 -2 9 C-2.33 7.68 -2.66 6.36 -3 5 C-2.34 5 -1.68 5 -1 5 C-0.67 3.35 -0.34 1.7 0 0 Z " fill="#D3F4F4" transform="translate(58,151)"/>
<path d="M0 0 C1 2 1 2 1 6 C0.01 6.495 0.01 6.495 -1 7 C-1.66 7.99 -2.32 8.98 -3 10 C-2.25 3.375 -2.25 3.375 0 0 Z " fill="#71AEAA" transform="translate(116,137)"/>
<path d="M0 0 C0.33 0.66 0.66 1.32 1 2 C1.66 2.33 2.32 2.66 3 3 C5 4 5 4 6 6 C4.35 5.67 2.7 5.34 1 5 C0.67 3.35 0.34 1.7 0 0 Z " fill="#247169" transform="translate(27,49)"/>
</svg>
