<?xml version="1.0" encoding="UTF-8"?>
<svg version="1.1" xmlns="http://www.w3.org/2000/svg" width="215" height="207">
<path d="M0 0 C70.95 0 141.9 0 215 0 C215 68.31 215 136.62 215 207 C144.05 207 73.1 207 0 207 C0 138.69 0 70.38 0 0 Z " fill="#FBFAFB" transform="translate(0,0)"/>
<path d="M0 0 C1.32 0 2.64 0 4 0 C4.66 2.31 5.32 4.62 6 7 C6.99 6.34 7.98 5.68 9 5 C11.15625 5.20703125 11.15625 5.20703125 13.5 5.8125 C14.2734375 6.00457031 15.046875 6.19664063 15.84375 6.39453125 C17.57685815 6.88118299 19.29223995 7.43074665 21 8 C23.39490986 8.06970052 25.79167691 8.08448003 28.1875 8.0625 C29.45980469 8.05347656 30.73210937 8.04445313 32.04296875 8.03515625 C33.01878906 8.02355469 33.99460938 8.01195313 35 8 C36.38226016 10.76452033 36.09525387 13.0461363 36.0625 16.125 C36.05347656 17.22070312 36.04445312 18.31640625 36.03515625 19.4453125 C36.02355469 20.28835937 36.01195312 21.13140625 36 22 C34.35 22 32.7 22 31 22 C31 18.37 31 14.74 31 11 C30.01 11.33 29.02 11.66 28 12 C27.67 14.97 27.34 17.94 27 21 C25.35 21.33 23.7 21.66 22 22 C22 21.34 22 20.68 22 20 C21.49210937 20.31195313 20.98421875 20.62390625 20.4609375 20.9453125 C14.84283115 24.12259362 14.84283115 24.12259362 10.5625 23.5 C8 22 8 22 7.125 19.875 C7.08375 19.25625 7.0425 18.6375 7 18 C6.34 18.33 5.68 18.66 5 19 C4.67 19.99 4.34 20.98 4 22 C2.04233719 22.08082094 0.08373272 22.13910778 -1.875 22.1875 C-3.51082031 22.23970703 -3.51082031 22.23970703 -5.1796875 22.29296875 C-6.11039062 22.19628906 -7.04109375 22.09960938 -8 22 C-10.13586678 18.79619983 -10.23132175 17.98060033 -10.125 14.3125 C-10.10695313 13.50425781 -10.08890625 12.69601563 -10.0703125 11.86328125 C-10.04710938 11.24839844 -10.02390625 10.63351563 -10 10 C-10.66 10 -11.32 10 -12 10 C-12 9.34 -12 8.68 -12 8 C-11.34 8 -10.68 8 -10 8 C-10 6.68 -10 5.36 -10 4 C-8.68 4 -7.36 4 -6 4 C-6 4.66 -6 5.32 -6 6 C-4.35 6 -2.7 6 -1 6 C-0.67 4.02 -0.34 2.04 0 0 Z " fill="#BDD7EC" transform="translate(86,91)"/>
<path d="M0 0 C0 0.99 0 1.98 0 3 C-3.02734375 3.24414062 -3.02734375 3.24414062 -6.0546875 3.48828125 C-8.39519216 3.87393036 -8.39519216 3.87393036 -10 7 C-9.68269476 10.63939932 -9.68269476 10.63939932 -9 14 C-6.69 14.66 -4.38 15.32 -2 16 C-2 14.68 -2 13.36 -2 12 C-3.32 12 -4.64 12 -6 12 C-6 10.68 -6 9.36 -6 8 C-4.01432292 7.83723958 -2.02864583 7.67447917 -0.04296875 7.51171875 C2.08880411 7.17700725 2.08880411 7.17700725 3.36328125 5.51367188 C5.38166896 3.64702453 6.52171249 3.51927474 9.23046875 3.26953125 C10.03291016 3.18896484 10.83535156 3.10839844 11.66210938 3.02539062 C12.49548828 2.95513672 13.32886719 2.88488281 14.1875 2.8125 C15.03248047 2.73064453 15.87746094 2.64878906 16.74804688 2.56445312 C18.83092268 2.36440291 20.91535003 2.18062716 23 2 C23 2.66 23 3.32 23 4 C23.99 4 24.98 4 26 4 C27.00109515 7.31070838 27.10356134 10.30084769 27.0625 13.75 C27.05347656 14.73484375 27.04445312 15.7196875 27.03515625 16.734375 C27.02355469 17.48203125 27.01195312 18.2296875 27 19 C25.20866022 19.05391993 23.41686101 19.09275571 21.625 19.125 C20.62726563 19.14820312 19.62953125 19.17140625 18.6015625 19.1953125 C16 19 16 19 14 17 C13.6875 14.5 13.6875 14.5 14 12 C14.99 11.34 15.98 10.68 17 10 C14.69 9.67 12.38 9.34 10 9 C9.67 12.3 9.34 15.6 9 19 C5 20 5 20 2 20 C1.34 20.33 0.68 20.66 0 21 C-6.53333333 21.23333333 -6.53333333 21.23333333 -9 20 C-9 19.34 -9 18.68 -9 18 C-9.639375 17.731875 -10.27875 17.46375 -10.9375 17.1875 C-13 16 -13 16 -14 13 C-14.42167655 5.26926334 -14.42167655 5.26926334 -12 2 C-8.39073335 -0.77635896 -4.34273654 -0.14475788 0 0 Z " fill="#C5DFEF" transform="translate(143,93)"/>
<path d="M0 0 C1.32 0 2.64 0 4 0 C4.66 2.31 5.32 4.62 6 7 C6.99 6.34 7.98 5.68 9 5 C12.6875 5.375 12.6875 5.375 16 6 C16 6.33 16 6.66 16 7 C13.69 7 11.38 7 9 7 C8.87882812 7.78246094 8.75765625 8.56492187 8.6328125 9.37109375 C8.46523437 10.38300781 8.29765625 11.39492187 8.125 12.4375 C7.96257812 13.44683594 7.80015625 14.45617187 7.6328125 15.49609375 C7.42398438 16.32238281 7.21515625 17.14867188 7 18 C6.34 18.33 5.68 18.66 5 19 C4.67 19.99 4.34 20.98 4 22 C2.04233719 22.08082094 0.08373272 22.13910778 -1.875 22.1875 C-3.51082031 22.23970703 -3.51082031 22.23970703 -5.1796875 22.29296875 C-6.11039062 22.19628906 -7.04109375 22.09960938 -8 22 C-10.13586678 18.79619983 -10.23132175 17.98060033 -10.125 14.3125 C-10.10695313 13.50425781 -10.08890625 12.69601563 -10.0703125 11.86328125 C-10.04710938 11.24839844 -10.02390625 10.63351563 -10 10 C-10.66 10 -11.32 10 -12 10 C-12 9.34 -12 8.68 -12 8 C-11.34 8 -10.68 8 -10 8 C-10 6.68 -10 5.36 -10 4 C-8.68 4 -7.36 4 -6 4 C-6 4.66 -6 5.32 -6 6 C-4.35 6 -2.7 6 -1 6 C-0.67 4.02 -0.34 2.04 0 0 Z " fill="#C5DCE8" transform="translate(86,91)"/>
<path d="M0 0 C2 2 2 2 2 5 C2.99 5.33 3.98 5.66 5 6 C5.33 6.66 5.66 7.32 6 8 C7.67236388 8.45556485 9.3644925 8.83949021 11.0625 9.1875 C16.92535545 10.74123323 21.60157035 12.78031247 25 18 C25.91576618 21.85699168 25.97329144 25.15078935 25 29 C22.625 31.0625 22.625 31.0625 20 32 C19.34 32.66 18.68 33.32 18 34 C15.2616463 34.00876741 12.65762404 33.90728413 9.9375 33.6875 C9.19177734 33.63916016 8.44605469 33.59082031 7.67773438 33.54101562 C2.14395028 33.14395028 2.14395028 33.14395028 1 32 C0.92728259 29.64686445 0.91629132 27.29166332 0.9375 24.9375 C0.94652344 23.64714844 0.95554687 22.35679688 0.96484375 21.02734375 C0.97644531 20.02832031 0.98804688 19.02929688 1 18 C1.2784375 18.60585937 1.556875 19.21171875 1.84375 19.8359375 C3.41051516 22.76832905 5.60137063 24.7213021 8 27 C8.66 27.66 9.32 28.32 10 29 C12.21072977 29.24253813 12.21072977 29.24253813 14.625 29.125 C15.44226562 29.10695312 16.25953125 29.08890625 17.1015625 29.0703125 C18.04128906 29.03550781 18.04128906 29.03550781 19 29 C20.20307987 25.39076038 20.40565724 22.78613423 20 19 C16.23213416 16.28429292 11.91590631 14.41473836 7.75 12.375 C1.13392857 9.13392857 1.13392857 9.13392857 0 8 C-0.14115161 5.32941149 -0.04247107 2.67567762 0 0 Z " fill="#5F7083" transform="translate(5,100)"/>
<path d="M0 0 C1.08667969 0.01804687 2.17335938 0.03609375 3.29296875 0.0546875 C4.54013672 0.08949219 4.54013672 0.08949219 5.8125 0.125 C5.8125 0.785 5.8125 1.445 5.8125 2.125 C7.4625 2.125 9.1125 2.125 10.8125 2.125 C10.8125 4.105 10.8125 6.085 10.8125 8.125 C8.42685923 7.54915568 6.14567216 6.90272405 3.8125 6.125 C3.8125 5.465 3.8125 4.805 3.8125 4.125 C-2.1275 4.62 -2.1275 4.62 -8.1875 5.125 C-9.04137105 8.43067489 -9.04137105 8.43067489 -9.1875 12.125 C-6.28156884 16.01866145 -3.4375759 16.81845585 1.1875 17.875 C6.77393051 19.47740695 9.84180616 21.05860874 12.921875 26.03125 C14.29613535 29.26196732 14.41856815 31.69061381 13.8125 35.125 C12.27734375 36.82421875 12.27734375 36.82421875 10.8125 38.125 C10.72613281 37.44953125 10.63976562 36.7740625 10.55078125 36.078125 C9.71712114 30.45258597 9.71712114 30.45258597 6.75 25.75 C2.87315262 23.60536103 -1.11108055 21.85156782 -5.1875 20.125 C-11.04796512 17.40406977 -11.04796512 17.40406977 -12.1875 15.125 C-12.53782356 9.78256567 -12.6436069 6.47713461 -9.1875 2.125 C-5.66070901 -0.22619399 -4.15870515 -0.08943452 0 0 Z " fill="#233140" transform="translate(21.1875,86.875)"/>
<path d="M0 0 C0.88429687 -0.03738281 1.76859375 -0.07476562 2.6796875 -0.11328125 C5.125 0.3125 5.125 0.3125 6.91796875 2.14453125 C8.56761745 5.10749251 8.61228309 6.97113021 8.125 10.3125 C6.5 12.6875 6.5 12.6875 4.125 14.3125 C0.875 14.5625 0.875 14.5625 -1.875 14.3125 C-1.875 16.6225 -1.875 18.9325 -1.875 21.3125 C-3.195 21.3125 -4.515 21.3125 -5.875 21.3125 C-5.90388146 18.00001813 -5.92175799 14.68756833 -5.9375 11.375 C-5.94587891 10.42947266 -5.95425781 9.48394531 -5.96289062 8.50976562 C-5.96611328 7.61064453 -5.96933594 6.71152344 -5.97265625 5.78515625 C-5.97789307 4.95250244 -5.98312988 4.11984863 -5.98852539 3.26196289 C-5.76424593 -0.58937366 -3.32359025 0.09151915 0 0 Z " fill="#5784B7" transform="translate(177.875,97.6875)"/>
<path d="M0 0 C1.45742463 -0.08096803 2.91612807 -0.13917774 4.375 -0.1875 C5.18710938 -0.22230469 5.99921875 -0.25710937 6.8359375 -0.29296875 C7.55007812 -0.19628906 8.26421875 -0.09960938 9 0 C11.52185169 3.78277754 11.72956472 6.55796671 11 11 C9.4375 13.0625 9.4375 13.0625 7 14 C0.67272727 13.67272727 0.67272727 13.67272727 -2 11 C-2.32404335 6.62541479 -2.11530703 3.81091029 0 0 Z " fill="#628DBB" transform="translate(95,98)"/>
<path d="M0 0 C1.32 0 2.64 0 4 0 C4 2.31 4 4.62 4 7 C6.64 7 9.28 7 12 7 C13.04976964 10.14930893 13.10131595 12.38814456 13.0625 15.6875 C13.05347656 16.68136719 13.04445312 17.67523438 13.03515625 18.69921875 C13.02355469 19.45847656 13.01195312 20.21773437 13 21 C11.68 21 10.36 21 9 21 C9 17.7 9 14.4 9 11 C7.68 11.33 6.36 11.66 5 12 C4.67 14.97 4.34 17.94 4 21 C2.68 20.67 1.36 20.34 0 20 C0 13.4 0 6.8 0 0 Z " fill="#6E97BF" transform="translate(188,91)"/>
<path d="M0 0 C0.7940625 -0.01417969 1.588125 -0.02835937 2.40625 -0.04296875 C4.5 0.1875 4.5 0.1875 6.5 2.1875 C7.17681895 9.29409898 7.17681895 9.29409898 4.9375 12.25 C1.40893904 13.60713883 -0.88775116 13.17265877 -4.5 12.1875 C-6.5 10.5625 -6.5 10.5625 -7.5 8.1875 C-7.3125 4.5 -7.3125 4.5 -6.5 1.1875 C-4.14653604 0.01076802 -2.6193967 0.02126134 0 0 Z " fill="#5A85B2" transform="translate(43.5,98.8125)"/>
<path d="M0 0 C0 0.99 0 1.98 0 3 C-3.02734375 3.24414062 -3.02734375 3.24414062 -6.0546875 3.48828125 C-8.39519216 3.87393036 -8.39519216 3.87393036 -10 7 C-9.68269476 10.63939932 -9.68269476 10.63939932 -9 14 C-6.69 14.66 -4.38 15.32 -2 16 C-2 14.68 -2 13.36 -2 12 C-3.32 12 -4.64 12 -6 12 C-6 11.01 -6 10.02 -6 9 C-3.36 9 -0.72 9 2 9 C2.02689216 10.47906892 2.04634621 11.95827483 2.0625 13.4375 C2.07410156 14.26121094 2.08570313 15.08492187 2.09765625 15.93359375 C2 18 2 18 1 19 C-1.14453125 19.203125 -1.14453125 19.203125 -3.8125 19.25 C-4.68519531 19.27578125 -5.55789062 19.3015625 -6.45703125 19.328125 C-9.49840475 18.93568971 -10.80496499 18.11117974 -13 16 C-14.3922653 11.8232041 -14.62091133 7.9144766 -13.25 3.6875 C-9.83688265 -0.92020843 -5.23708021 -0.17456934 0 0 Z " fill="#658FBA" transform="translate(143,93)"/>
<path d="M0 0 C6.30229293 -0.36359382 6.30229293 -0.36359382 9.21875 1.15625 C11 3 11 3 11.390625 5.69921875 C11.32101563 7.17841797 11.32101563 7.17841797 11.25 8.6875 C11.21390625 9.68136719 11.1778125 10.67523438 11.140625 11.69921875 C11.07101563 12.83810547 11.07101563 12.83810547 11 14 C9.20866022 14.05391993 7.41686101 14.09275571 5.625 14.125 C4.62726563 14.14820312 3.62953125 14.17140625 2.6015625 14.1953125 C0 14 0 14 -2 12 C-2.3125 9.5 -2.3125 9.5 -2 7 C1.22791555 4.8480563 2.28400809 4.79913557 6 5 C6 4.34 6 3.68 6 3 C4.02 3 2.04 3 0 3 C0 2.01 0 1.02 0 0 Z " fill="#7FA6CB" transform="translate(159,98)"/>
<path d="M0 0 C2 2 2 2 2 5 C2.99 5.33 3.98 5.66 5 6 C5.33 6.66 5.66 7.32 6 8 C7.67236388 8.45556485 9.3644925 8.83949021 11.0625 9.1875 C16.89377241 10.73286332 21.65779145 12.76668186 25 18 C25.63369456 21.76668048 25.49174132 25.22315347 25 29 C24.34 29 23.68 29 23 29 C23.33 27.35 23.66 25.7 24 24 C23.01 24.33 22.02 24.66 21 25 C20.81050781 23.92234375 20.62101562 22.8446875 20.42578125 21.734375 C18.90381636 17.74807791 17.89347748 16.80759911 14.09179688 15.04296875 C13.46337891 14.78128906 12.83496094 14.51960938 12.1875 14.25 C2.549848 9.91960255 2.549848 9.91960255 0 8 C-0.66913403 5.20034321 -0.23868841 2.91199859 0 0 Z " fill="#5E7B9E" transform="translate(5,100)"/>
<path d="M0 0 C0.556875 0.25394531 1.11375 0.50789063 1.6875 0.76953125 C2.450625 1.11371094 3.21375 1.45789063 4 1.8125 C4.81984375 2.18375 5.6396875 2.555 6.484375 2.9375 C8.72356243 3.88324376 10.92910782 4.60383063 13.25 5.3125 C17.04165709 6.71541312 19.02027141 8.68773009 21.15625 12.09375 C22.53612411 15.21124336 22.51177261 17.67347802 22 21 C20.46875 22.703125 20.46875 22.703125 19 24 C18.91363281 23.32453125 18.82726562 22.6490625 18.73828125 21.953125 C17.90462114 16.32758597 17.90462114 16.32758597 14.9375 11.625 C11.76633293 9.87073737 8.56298807 8.36078341 5.2265625 6.94921875 C2.42148924 5.75337173 -0.28740546 4.39107413 -3 3 C-2.01 2.67 -1.02 2.34 0 2 C0 1.34 0 0.68 0 0 Z " fill="#4B5E72" transform="translate(13,101)"/>
<path d="M0 0 C1.58877287 3.17754575 1 6.49382922 1 10 C2.22874961 12.45749922 3.12626652 12.75037253 5.5625 13.9375 C6.27921875 14.28683594 6.9959375 14.63617188 7.734375 14.99609375 C9.90110521 15.95617938 12.06925022 16.73978757 14.3125 17.5 C17.88821889 18.95452972 19.17585577 19.69373859 21 23 C20.34 23.66 19.68 24.32 19 25 C18.236875 24.236875 17.47375 23.47375 16.6875 22.6875 C13.04169441 19.58987043 9.20071299 18.80826804 4.5859375 17.87109375 C1.47753537 16.82400361 0.07074846 15.51581883 -2 13 C-2.33 12.01 -2.66 11.02 -3 10 C-3.66 10.99 -4.32 11.98 -5 13 C-5.602537 6.97463002 -5.602537 6.97463002 -3.88671875 4.19921875 C-2.65378147 2.74400545 -1.33191067 1.36520843 0 0 Z " fill="#CADCEA" transform="translate(9,92)"/>
<path d="M0 0 C1.32 0 2.64 0 4 0 C4 0.99 4 1.98 4 3 C4.99 3 5.98 3 7 3 C7 3.99 7 4.98 7 6 C6.01 6 5.02 6 4 6 C4 8.64 4 11.28 4 14 C5.32 14 6.64 14 8 14 C8 14.99 8 15.98 8 17 C5.125 17.125 5.125 17.125 2 17 C0 15 0 15 -0.1953125 12.8359375 C-0.17210938 12.02382812 -0.14890625 11.21171875 -0.125 10.375 C-0.10695313 9.55773437 -0.08890625 8.74046875 -0.0703125 7.8984375 C-0.04710938 7.27195312 -0.02390625 6.64546875 0 6 C-0.66 6 -1.32 6 -2 6 C-2 5.34 -2 4.68 -2 4 C-1.34 4 -0.68 4 0 4 C0 2.68 0 1.36 0 0 Z " fill="#618BBA" transform="translate(76,95)"/>
<path d="M0 0 C0.99 0 1.98 0 3 0 C3 3.3 3 6.6 3 10 C4.65 9.67 6.3 9.34 8 9 C8.33 6.03 8.66 3.06 9 0 C9.99 0 10.98 0 12 0 C12.08121924 1.60332791 12.13929134 3.20784026 12.1875 4.8125 C12.22230469 5.70582031 12.25710937 6.59914063 12.29296875 7.51953125 C12 10 12 10 10.7109375 11.80078125 C7.86910329 13.79266048 5.33938718 13.36429678 2 13 C-0.20914 9.68629 -0.22481553 8.6553979 -0.125 4.8125 C-0.10695312 3.91144531 -0.08890625 3.01039062 -0.0703125 2.08203125 C-0.04710937 1.39496094 -0.02390625 0.70789063 0 0 Z " fill="#5781B2" transform="translate(60,99)"/>
<path d="M0 0 C1.32 0 2.64 0 4 0 C4 6.6 4 13.2 4 20 C2.68 20.33 1.36 20.66 0 21 C0 14.07 0 7.14 0 0 Z " fill="#779FC8" transform="translate(53,91)"/>
<path d="M0 0 C0 1.32 0 2.64 0 4 C-0.66 4 -1.32 4 -2 4 C-2 4.66 -2 5.32 -2 6 C-1.34 6.33 -0.68 6.66 0 7 C-0.99 7 -1.98 7 -3 7 C-3 9.31 -3 11.62 -3 14 C-3.33 14 -3.66 14 -4 14 C-4 10.7 -4 7.4 -4 4 C-4.99 4 -5.98 4 -7 4 C-6.98839844 4.63808594 -6.97679688 5.27617188 -6.96484375 5.93359375 C-6.95582031 6.75988281 -6.94679688 7.58617188 -6.9375 8.4375 C-6.92589844 9.26121094 -6.91429688 10.08492187 -6.90234375 10.93359375 C-7 13 -7 13 -8 14 C-9.65 14 -11.3 14 -13 14 C-13 10.7 -13 7.4 -13 4 C-13.99 3.67 -14.98 3.34 -16 3 C-14.68 3 -13.36 3 -12 3 C-11.67 5.97 -11.34 8.94 -11 12 C-10.34 12 -9.68 12 -9 12 C-9 8.7 -9 5.4 -9 2 C-3.375 0 -3.375 0 0 0 Z " fill="#BEDAEC" transform="translate(76,95)"/>
<path d="M0 0 C3.63 0 7.26 0 11 0 C11 4.29 11 8.58 11 13 C10.01 13 9.02 13 8 13 C8 9.37 8 5.74 8 2 C6.35 2.33 4.7 2.66 3 3 C2.67 5.97 2.34 8.94 2 12 C1.34 12 0.68 12 0 12 C0 8.04 0 4.08 0 0 Z " fill="#5B83B1" transform="translate(110,99)"/>
<path d="M0 0 C0.33 0 0.66 0 1 0 C1 1.65 1 3.3 1 5 C-0.6396875 5.2165625 -0.6396875 5.2165625 -2.3125 5.4375 C-5.93122987 5.88288104 -5.93122987 5.88288104 -9 7 C-9 8.98 -9 10.96 -9 13 C-8.34 13 -7.68 13 -7 13 C-6.67 11.68 -6.34 10.36 -6 9 C-6 9.99 -6 10.98 -6 12 C-4.68 12 -3.36 12 -2 12 C-2 13.32 -2 14.64 -2 16 C-7.40432346 16.48038431 -7.40432346 16.48038431 -9.9375 14.4375 C-11.44640049 10.97590475 -10.8701627 8.61452199 -10 5 C-8 3 -8 3 -6.0546875 2.8046875 C-4.03645833 2.86979167 -2.01822917 2.93489583 0 3 C0 2.01 0 1.02 0 0 Z " fill="#C6DFEF" transform="translate(143,93)"/>
<path d="M0 0 C0 0.99 0 1.98 0 3 C-3.02734375 3.24414062 -3.02734375 3.24414062 -6.0546875 3.48828125 C-8.39519216 3.87393036 -8.39519216 3.87393036 -10 7 C-10.45139459 9.0492094 -10.45139459 9.0492094 -10.625 11.1875 C-10.74875 12.445625 -10.8725 13.70375 -11 15 C-11.66 15 -12.32 15 -13 15 C-14.79009505 11.41980989 -14.46638897 7.43803267 -13.25 3.6875 C-9.83688265 -0.92020843 -5.23708021 -0.17456934 0 0 Z " fill="#5A84B3" transform="translate(143,93)"/>
<path d="M0 0 C1.37478516 0.01740234 1.37478516 0.01740234 2.77734375 0.03515625 C3.69644531 0.04417969 4.61554688 0.05320312 5.5625 0.0625 C6.27277344 0.07410156 6.98304688 0.08570312 7.71484375 0.09765625 C7.71484375 0.42765625 7.71484375 0.75765625 7.71484375 1.09765625 C4.74484375 1.09765625 1.77484375 1.09765625 -1.28515625 1.09765625 C-0.95515625 5.05765625 -0.62515625 9.01765625 -0.28515625 13.09765625 C2.02484375 13.09765625 4.33484375 13.09765625 6.71484375 13.09765625 C6.71484375 13.42765625 6.71484375 13.75765625 6.71484375 14.09765625 C4.73484375 14.09765625 2.75484375 14.09765625 0.71484375 14.09765625 C0.71484375 16.40765625 0.71484375 18.71765625 0.71484375 21.09765625 C-0.60515625 21.09765625 -1.92515625 21.09765625 -3.28515625 21.09765625 C-3.31403771 17.78517438 -3.33191424 14.47272458 -3.34765625 11.16015625 C-3.35603516 10.21462891 -3.36441406 9.26910156 -3.37304688 8.29492188 C-3.37626953 7.39580078 -3.37949219 6.49667969 -3.3828125 5.5703125 C-3.38804932 4.73765869 -3.39328613 3.90500488 -3.39868164 3.04711914 C-3.23218165 0.18797407 -2.86349048 0.12237139 0 0 Z " fill="#87ABCD" transform="translate(175.28515625,97.90234375)"/>
<path d="M0 0 C1.32 0 2.64 0 4 0 C4 4.62 4 9.24 4 14 C2.68 14 1.36 14 0 14 C0 9.38 0 4.76 0 0 Z " fill="#6F94BA" transform="translate(86,98)"/>
<path d="M0 0 C0.33 0 0.66 0 1 0 C1 5.94 1 11.88 1 18 C0.34 17.67 -0.32 17.34 -1 17 C-1 15.68 -1 14.36 -1 13 C-1.55429688 13.15597656 -2.10859375 13.31195313 -2.6796875 13.47265625 C-3.76636719 13.76462891 -3.76636719 13.76462891 -4.875 14.0625 C-5.59429687 14.25972656 -6.31359375 14.45695312 -7.0546875 14.66015625 C-9 15 -9 15 -11 14 C-11 13.34 -11 12.68 -11 12 C-7.7 12 -4.4 12 -1 12 C-1.01160156 11.21753906 -1.02320313 10.43507813 -1.03515625 9.62890625 C-1.04417969 8.61699219 -1.05320313 7.60507813 -1.0625 6.5625 C-1.07410156 5.55316406 -1.08570313 4.54382813 -1.09765625 3.50390625 C-1 1 -1 1 0 0 Z " fill="#E6FBFF" transform="translate(171,100)"/>
<path d="M0 0 C2 2 2 2 2 5 C2.99 5.33 3.98 5.66 5 6 C5.33 6.66 5.66 7.32 6 8 C8.11015954 9.12706706 8.11015954 9.12706706 10.5625 10.125 C11.38878906 10.47820312 12.21507812 10.83140625 13.06640625 11.1953125 C14.02353516 11.59363281 14.02353516 11.59363281 15 12 C15 12.33 15 12.66 15 13 C9.56751953 13.56588338 6.10715078 12.70133684 1.53515625 9.64453125 C-0.39027148 7.58192292 -0.50495143 6.47515652 -0.5 3.6875 C-0.335 2.470625 -0.17 1.25375 0 0 Z " fill="#3F4D5F" transform="translate(5,100)"/>
<path d="M0 0 C3.96 0 7.92 0 12 0 C12 0.66 12 1.32 12 2 C13.65 2 15.3 2 17 2 C17 3.98 17 5.96 17 8 C14.61435923 7.42415568 12.33317216 6.77772405 10 6 C10 5.34 10 4.68 10 4 C9.01 3.67 8.02 3.34 7 3 C8.32 3 9.64 3 11 3 C11 2.34 11 1.68 11 1 C5.06 1.495 5.06 1.495 -1 2 C-0.67 1.34 -0.34 0.68 0 0 Z " fill="#65707C" transform="translate(15,87)"/>
<path d="M0 0 C0.66 0.66 1.32 1.32 2 2 C2.99 1.34 3.98 0.68 5 0 C8.6875 0.375 8.6875 0.375 12 1 C12 1.33 12 1.66 12 2 C9.69 2 7.38 2 5 2 C4.34 5.63 3.68 9.26 3 13 C2.01 13.33 1.02 13.66 0 14 C0 9.38 0 4.76 0 0 Z " fill="#DFF4FA" transform="translate(90,96)"/>
<path d="M0 0 C0.66 0 1.32 0 2 0 C2.12117188 0.61488281 2.24234375 1.22976562 2.3671875 1.86328125 C2.53476562 2.67152344 2.70234375 3.47976562 2.875 4.3125 C3.11863281 5.51326172 3.11863281 5.51326172 3.3671875 6.73828125 C3.94478999 9.25301118 3.94478999 9.25301118 6 12 C2.4912812 15.09592835 -0.49197399 16.74194623 -5 18 C-3.6875 16 -3.6875 16 -2 14 C-1.01 14 -0.02 14 1 14 C0.67 9.38 0.34 4.76 0 0 Z " fill="#D0E3EE" transform="translate(29,115)"/>
<path d="M0 0 C2.5 0.125 2.5 0.125 3.5 1.125 C3.21269945 3.46444736 2.88063221 5.7989143 2.5 8.125 C0.85 8.125 -0.8 8.125 -2.5 8.125 C-2.88063221 5.7989143 -3.21269945 3.46444736 -3.5 1.125 C-2.5 0.125 -2.5 0.125 0 0 Z " fill="#A7CCE8" transform="translate(99.5,100.875)"/>
<path d="M0 0 C0 0.99 0 1.98 0 3 C-1.32 3.33 -2.64 3.66 -4 4 C-4.33 6.97 -4.66 9.94 -5 13 C-5.99 13 -6.98 13 -8 13 C-8 9.04 -8 5.08 -8 1 C-3 0 -3 0 0 0 Z " fill="#5C85B6" transform="translate(156,98)"/>
<path d="M0 0 C1.66611905 -0.042721 3.33382885 -0.04063832 5 0 C6 1 6 1 6.125 4 C6 7 6 7 5 8 C3.33382885 8.04063832 1.66611905 8.042721 0 8 C0 5.36 0 2.72 0 0 Z " fill="#CAE7F6" transform="translate(176,101)"/>
<path d="M0 0 C0.33 0 0.66 0 1 0 C1.06058594 0.69867188 1.12117188 1.39734375 1.18359375 2.1171875 C1.26738281 3.02726562 1.35117187 3.93734375 1.4375 4.875 C1.51871094 5.77992187 1.59992187 6.68484375 1.68359375 7.6171875 C1.86989285 10.01110861 1.86989285 10.01110861 3 12 C8.32170494 12.29562367 8.32170494 12.29562367 13 10 C12.34 11.65 11.68 13.3 11 15 C7.7 15 4.4 15 1 15 C1 14.01 1 13.02 1 12 C-0.32 12.33 -1.64 12.66 -3 13 C-2.690625 12.154375 -2.38125 11.30875 -2.0625 10.4375 C-0.98461179 6.9502146 -0.43418696 3.61822465 0 0 Z " fill="#C9E0F0" transform="translate(59,99)"/>
<path d="M0 0 C0.66 0 1.32 0 2 0 C2 3.3 2 6.6 2 10 C-0.97 10 -3.94 10 -7 10 C-7 8.35 -7 6.7 -7 5 C-6.34 5 -5.68 5 -5 5 C-5 5.99 -5 6.98 -5 8 C-3.35 8 -1.7 8 0 8 C0 6.68 0 5.36 0 4 C-1.65 4 -3.3 4 -5 4 C-5 3.67 -5 3.34 -5 3 C-3.35 3 -1.7 3 0 3 C0 2.01 0 1.02 0 0 Z " fill="#4176B2" transform="translate(166,101)"/>
<path d="M0 0 C1.2065625 0.0309375 1.2065625 0.0309375 2.4375 0.0625 C2.4375 2.7025 2.4375 5.3425 2.4375 8.0625 C0.7875 8.0625 -0.8625 8.0625 -2.5625 8.0625 C-2.94313221 5.7364143 -3.27519945 3.40194736 -3.5625 1.0625 C-2.5625 0.0625 -2.5625 0.0625 0 0 Z " fill="#D1EAF6" transform="translate(43.5625,100.9375)"/>
<path d="M0 0 C1.32 0 2.64 0 4 0 C4 3.3 4 6.6 4 10 C2.35 9.67 0.7 9.34 -1 9 C-1.09765625 2.84765625 -1.09765625 2.84765625 -1 1 C-0.67 0.67 -0.34 0.34 0 0 Z " fill="#ECFDFE" transform="translate(193,102)"/>
<path d="M0 0 C1.20272819 2.40545638 1.10071472 3.94996953 1.0625 6.625 C1.05347656 7.44226563 1.04445313 8.25953125 1.03515625 9.1015625 C1.02355469 9.72804688 1.01195312 10.35453125 1 11 C0.34 11 -0.32 11 -1 11 C-1.33 11.66 -1.66 12.32 -2 13 C-2.33 12.01 -2.66 11.02 -3 10 C-3.66 10.99 -4.32 11.98 -5 13 C-5.602537 6.97463002 -5.602537 6.97463002 -3.88671875 4.19921875 C-2.65378147 2.74400545 -1.33191067 1.36520843 0 0 Z " fill="#9CA5AB" transform="translate(9,92)"/>
<path d="M0 0 C0.66 0 1.32 0 2 0 C1.64789956 2.60554323 1.35614134 4.51601305 -0.21875 6.65625 C-2.63184258 8.47665317 -4.20185466 8.30382384 -7.1875 8.1875 C-8.08855469 8.16042969 -8.98960938 8.13335937 -9.91796875 8.10546875 C-10.60503906 8.07066406 -11.29210938 8.03585938 -12 8 C-12 7.67 -12 7.34 -12 7 C-10.948125 6.95875 -9.89625 6.9175 -8.8125 6.875 C-3.7982422 5.72418674 -2.99672811 4.02417775 0 0 Z " fill="#2E3D4D" transform="translate(27,124)"/>
<path d="M0 0 C1.9811362 3.9622724 3.47740841 7.84747749 5 12 C3.35 12.33 1.7 12.66 0 13 C0 8.71 0 4.42 0 0 Z " fill="#293849" transform="translate(6,118)"/>
<path d="M0 0 C2 4 2 4 2 6 C3.32 6.33 4.64 6.66 6 7 C5.01 7.33 4.02 7.66 3 8 C2.34 11.3 1.68 14.6 1 18 C0.67 18 0.34 18 0 18 C0 12.06 0 6.12 0 0 Z " fill="#DCF3FB" transform="translate(57,91)"/>
<path d="M0 0 C2 2 2 2 2.3125 5.4375 C2 9 2 9 -1 12 C-1.66 8.37 -2.32 4.74 -3 1 C-2.01 0.67 -1.02 0.34 0 0 Z " fill="#657890" transform="translate(33,113)"/>
<path d="M0 0 C0 0.66 0 1.32 0 2 C0.99 2 1.98 2 3 2 C2.67 2.99 2.34 3.98 2 5 C1.34 4.67 0.68 4.34 0 4 C-3.5 3.75 -3.5 3.75 -7 4 C-7.66 4.66 -8.32 5.32 -9 6 C-9.33 4.68 -9.66 3.36 -10 2 C-6.38026598 0.68373308 -3.90432869 0 0 0 Z " fill="#E1EFF8" transform="translate(166,95)"/>
<path d="M0 0 C3.77545388 1.09068668 6.47043472 1.9083091 9 5 C8.67 5.66 8.34 6.32 8 7 C5.125 6.3125 5.125 6.3125 2 5 C0.625 2.375 0.625 2.375 0 0 Z " fill="#C1D1DF" transform="translate(8,103)"/>
<path d="M0 0 C3.68754757 0.49831724 5.60490662 1.10067643 8 4 C7.67 4.99 7.34 5.98 7 7 C3.535 5.02 3.535 5.02 0 3 C0 2.01 0 1.02 0 0 Z " fill="#313C4D" transform="translate(25,108)"/>
<path d="M0 0 C0.33 0.99 0.66 1.98 1 3 C2.32 3 3.64 3 5 3 C5 4.32 5 5.64 5 7 C3.02 7 1.04 7 -1 7 C-1.33 6.01 -1.66 5.02 -2 4 C-1.34 4 -0.68 4 0 4 C0 2.68 0 1.36 0 0 Z " fill="#CDEBF7" transform="translate(136,102)"/>
<path d="M0 0 C0.66 0.33 1.32 0.66 2 1 C2 4.63 2 8.26 2 12 C1.34 12 0.68 12 0 12 C0.33 10.35 0.66 8.7 1 7 C0.01 7.33 -0.98 7.66 -2 8 C-2 6.35 -2 4.7 -2 3 C-1.34 2.67 -0.68 2.34 0 2 C0 1.34 0 0.68 0 0 Z " fill="#7991A5" transform="translate(28,117)"/>
<path d="M0 0 C0.66 0 1.32 0 2 0 C2 3.3 2 6.6 2 10 C1.34 10 0.68 10 0 10 C-1.49106457 7.01787087 -1.11941467 4.28390342 -1 1 C-0.67 0.67 -0.34 0.34 0 0 Z " fill="#4D7AAE" transform="translate(130,98)"/>
<path d="M0 0 C0.99 0 1.98 0 3 0 C3 2.31 3 4.62 3 7 C1.02 7.99 1.02 7.99 -1 9 C-0.67 6.03 -0.34 3.06 0 0 Z " fill="#DFF6FC" transform="translate(73,102)"/>
<path d="M0 0 C2.475 0.99 2.475 0.99 5 2 C4.34 4.97 3.68 7.94 3 11 C2.67 11 2.34 11 2 11 C2 8.03 2 5.06 2 2 C1.34 2 0.68 2 0 2 C0 1.34 0 0.68 0 0 Z " fill="#5281B9" transform="translate(74,99)"/>
<path d="M0 0 C0 2.64 0 5.28 0 8 C-0.66 7.67 -1.32 7.34 -2 7 C-2.625 3.9375 -2.625 3.9375 -3 1 C-4.65 1 -6.3 1 -8 1 C-8 0.67 -8 0.34 -8 0 C-2.25 -1.125 -2.25 -1.125 0 0 Z " fill="#5682B1" transform="translate(49,100)"/>
<path d="M0 0 C2.625 0.375 2.625 0.375 5 1 C4.67 1.99 4.34 2.98 4 4 C0.7 4 -2.6 4 -6 4 C-4.68 3.34 -3.36 2.68 -2 2 C-1.34 1.34 -0.68 0.68 0 0 Z " fill="#C5DBEC" transform="translate(116,95)"/>
<path d="M0 0 C0 3.3 0 6.6 0 10 C-0.99 10.495 -0.99 10.495 -2 11 C-2.22786458 8.98177083 -2.45572917 6.96354167 -2.68359375 4.9453125 C-2.91292961 2.92595684 -2.91292961 2.92595684 -4 1 C-1 0 -1 0 0 0 Z " fill="#E2F9FD" transform="translate(52,98)"/>
<path d="M0 0 C1.32 0.33 2.64 0.66 4 1 C4 2.65 4 4.3 4 6 C2.68 6 1.36 6 0 6 C0 4.02 0 2.04 0 0 Z " fill="#E0F8FE" transform="translate(98,102)"/>
<path d="M0 0 C0.99 0 1.98 0 3 0 C3 2.97 3 5.94 3 9 C2.67 9 2.34 9 2 9 C1.67 7.02 1.34 5.04 1 3 C0.67 5.31 0.34 7.62 0 10 C-0.33 10 -0.66 10 -1 10 C-1.02689216 8.52093108 -1.04634621 7.04172517 -1.0625 5.5625 C-1.07410156 4.73878906 -1.08570312 3.91507812 -1.09765625 3.06640625 C-1 1 -1 1 0 0 Z " fill="#E3F7FE" transform="translate(114,102)"/>
<path d="M0 0 C1.2065625 0.0309375 1.2065625 0.0309375 2.4375 0.0625 C2.4375 2.0425 2.4375 4.0225 2.4375 6.0625 C1.7775 6.0625 1.1175 6.0625 0.4375 6.0625 C-0.94482443 4.43623596 -2.28187515 2.7699998 -3.5625 1.0625 C-2.5625 0.0625 -2.5625 0.0625 0 0 Z " fill="#112132" transform="translate(29.5625,88.9375)"/>
<path d="M0 0 C0.66 0.33 1.32 0.66 2 1 C-1.5087188 4.09592835 -4.49197399 5.74194623 -9 7 C-7.6875 5 -7.6875 5 -6 3 C-5.01 3 -4.02 3 -3 3 C-3 2.34 -3 1.68 -3 1 C-2.01 0.67 -1.02 0.34 0 0 Z " fill="#DDE6EA" transform="translate(33,126)"/>
<path d="M0 0 C0.33 0 0.66 0 1 0 C1 3.3 1 6.6 1 10 C-0.32 8.35 -1.64 6.7 -3 5 C-1.125 1.125 -1.125 1.125 0 0 Z " fill="#EEFBFD" transform="translate(84,102)"/>
<path d="M0 0 C1.32 0 2.64 0 4 0 C4 1.65 4 3.3 4 5 C3.34 4.67 2.68 4.34 2 4 C2 3.34 2 2.68 2 2 C1.34 2 0.68 2 0 2 C0 4.31 0 6.62 0 9 C-0.33 9 -0.66 9 -1 9 C-1.09765625 2.84765625 -1.09765625 2.84765625 -1 1 C-0.67 0.67 -0.34 0.34 0 0 Z " fill="#D4EFF7" transform="translate(193,102)"/>
<path d="M0 0 C0 0.99 0 1.98 0 3 C-3.3 3.33 -6.6 3.66 -10 4 C-10 3.34 -10 2.68 -10 2 C-8.7090864 1.66376204 -7.41723903 1.33110751 -6.125 1 C-5.40570313 0.814375 -4.68640625 0.62875 -3.9453125 0.4375 C-2 0 -2 0 0 0 Z " fill="#BBD4E9" transform="translate(48,96)"/>
<path d="M0 0 C3.3 0 6.6 0 10 0 C7.41212273 2.58787727 5.57992139 2.62709152 2 3 C1.34 2.67 0.68 2.34 0 2 C0 1.34 0 0.68 0 0 Z " fill="#D9EAF6" transform="translate(160,112)"/>
<path d="M0 0 C0.33 0 0.66 0 1 0 C1.29296875 6.0546875 1.29296875 6.0546875 1 8 C0.01 8.66 -0.98 9.32 -2 10 C-3.35439668 7.29120665 -3.06501451 4.99066732 -3 2 C-2.34 3.32 -1.68 4.64 -1 6 C-0.67 4.02 -0.34 2.04 0 0 Z " fill="#6F9BC2" transform="translate(49,101)"/>
<path d="M0 0 C1.98 0 3.96 0 6 0 C6 3.96 6 7.92 6 12 C5.67 12 5.34 12 5 12 C4.97421875 11.38511719 4.9484375 10.77023438 4.921875 10.13671875 C4.7185352 5.00745409 4.7185352 5.00745409 1.9375 0.9375 C1.298125 0.628125 0.65875 0.31875 0 0 Z " fill="#4874A7" transform="translate(114,99)"/>
<path d="M0 0 C1.134375 0.020625 2.26875 0.04125 3.4375 0.0625 C3.4375 0.3925 3.4375 0.7225 3.4375 1.0625 C1.7875 1.0625 0.1375 1.0625 -1.5625 1.0625 C-2.2225 3.7025 -2.8825 6.3425 -3.5625 9.0625 C-3.8925 9.0625 -4.2225 9.0625 -4.5625 9.0625 C-4.66015625 2.91015625 -4.66015625 2.91015625 -4.5625 1.0625 C-3.5625 0.0625 -3.5625 0.0625 0 0 Z " fill="#4B77AA" transform="translate(98.5625,98.9375)"/>
<path d="M0 0 C0 0.66 0 1.32 0 2 C-4.455 2.495 -4.455 2.495 -9 3 C-9 2.01 -9 1.02 -9 0 C-5.62182575 -0.84454356 -3.32534757 -1.10844919 0 0 Z " fill="#E1F5FA" transform="translate(181,96)"/>
<path d="M0 0 C1.53445094 3.06890187 0.54984289 5.70094266 0 9 C-0.99 9.33 -1.98 9.66 -3 10 C-3 8.35 -3 6.7 -3 5 C-2.34 5 -1.68 5 -1 5 C-0.67 3.35 -0.34 1.7 0 0 Z " fill="#C6E5F0" transform="translate(93,100)"/>
<path d="M0 0 C1.485 0.99 1.485 0.99 3 2 C3.1875 5.625 3.1875 5.625 3 9 C2.34 9 1.68 9 1 9 C0.67 6.03 0.34 3.06 0 0 Z " fill="#EDFCFE" transform="translate(64,98)"/>
<path d="M0 0 C0.66 0 1.32 0 2 0 C2 0.99 2 1.98 2 3 C3.32 3 4.64 3 6 3 C6 3.66 6 4.32 6 5 C4.02 5 2.04 5 0 5 C0 3.35 0 1.7 0 0 Z " fill="#517DAF" transform="translate(159,106)"/>
<path d="M0 0 C3.95820859 0.56545837 6.6659053 1.80902348 10 4 C9.01 4.495 9.01 4.495 8 5 C1.25806452 2.51612903 1.25806452 2.51612903 0 0 Z " fill="#BCCDD8" transform="translate(14,101)"/>
<path d="M0 0 C0.99 0.33 1.98 0.66 3 1 C3.33 2.65 3.66 4.3 4 6 C2.35 5.01 0.7 4.02 -1 3 C-0.67 2.01 -0.34 1.02 0 0 Z " fill="#445D7F" transform="translate(25,115)"/>
<path d="M0 0 C3.465 1.485 3.465 1.485 7 3 C7 3.33 7 3.66 7 4 C3.625 4.125 3.625 4.125 0 4 C-0.66 3.34 -1.32 2.68 -2 2 C-1.34 2 -0.68 2 0 2 C0 1.34 0 0.68 0 0 Z " fill="#456083" transform="translate(13,109)"/>
</svg>
