<svg xmlns="http://www.w3.org/2000/svg" viewBox="76 117.58 424.16 197.04"><path fill="#631780" d="M468.125 138.25c19.938 18.395 30.866 45.589 31.985 72.386.609 27.98-3.92 52.857-23.622 73.985A137 137 0 0 1 473 288l-1.687 1.813C470 291 470 291 468 291v2l-1.937.875c-2.215.953-2.215.953-3.063 3.125-23.61 15.22-48.026 17.327-75.215 17.195l-6.15-.006c-7.524-.01-15.048-.038-22.572-.064L308 314V123c26.03-2.263 26.03-2.263 35.563-2.5 8.11-.25 16.18-.67 24.271-1.283 35.577-2.67 71.03-5.15 100.291 19.033M384 183c-1.439 2.877-1.12 5.346-1.114 8.561v2.04c0 2.23.009 4.459.016 6.688l.005 4.632q.006 6.102.024 12.202.014 6.224.02 12.447.016 12.216.049 24.43l4.281-2.845 2.408-1.6c3.017-2.03 5.951-4.14 8.873-6.305l3.13-2.297L404 239v-2l1.723-.719C413.455 231.931 418.94 223.13 422 215c2.207-8.814 1.71-17.716-2-26l-.844-1.898c-2.372-4.684-5.759-8.229-10.156-11.102-9.85-3.225-17.758.276-25 7M76 123h76l1 56c6.074-8.049 6.074-8.049 11.938-16.25L167 160h2l.938-1.875L172 154h2l.684-2.086c1.63-3.61 3.902-6.487 6.379-9.539l1.474-1.84q1.498-1.866 3.003-3.725a528 528 0 0 0 4.081-5.134l2.379-2.988 2.125-2.676c2.577-2.765 4.35-2.992 8.083-3.132q2.01-.004 4.017.006h2.218c2.419 0 4.838.009 7.256.016l5.032.005q6.621.006 13.242.024 6.757.014 13.513.02 13.257.016 26.514.049c0 4.146-1.78 5.636-4.312 8.875-2.296 2.95-4.483 5.771-6.356 9.008L262 143h-2l-.835 1.772c-1.121 2.144-2.346 3.95-3.81 5.873l-1.552 2.052-1.615 2.115q-1.575 2.072-3.145 4.145l-1.545 2.03c-1.471 1.977-2.866 3.993-4.26 6.025L241 170h-2l-.809 1.746c-1.618 3.062-3.718 5.634-5.851 8.352-1.52 1.965-1.52 1.965-2.34 4.902h-2l-.75 1.64c-1.53 2.888-3.342 5.458-5.25 8.11l-2.125 2.984L218 200h-2c-.515 5.388.85 7.873 4 12.188 4 5.52 4 5.52 4 8.812h2c1.222 1.762 2.35 3.59 3.438 5.438q1.078 1.803 2.164 3.605l1.172 1.95c2.115 3.462 4.327 6.858 6.538 10.257l1.4 2.152 2.847 4.378q2.18 3.36 4.343 6.732c4.442 6.906 8.929 13.743 13.688 20.437 1.59 2.312 2.982 4.712 4.336 7.168 3.236 5.672 6.904 11.11 10.492 16.563l1.236 1.89q1.2 1.834 2.413 3.659c1.902 2.914 3.208 5.379 3.933 8.771a6385 6385 0 0 1-34.266.26c-5.303.025-10.607.06-15.91.117q-7.673.08-15.347.097-2.932.015-5.863.055c-2.732.036-5.463.041-8.195.039l-2.461.054c-2.256-.02-2.256-.02-5.958-.622-2.465-2.856-3-4.231-3-8h-2c-1.55-2.309-1.55-2.309-3.312-5.437l-1.899-3.348L184 294c-.425-.762-.85-1.524-1.29-2.309q-1.181-2.127-2.358-4.257c-4.06-7.31-8.205-14.56-12.536-21.711-.547-.906-1.095-1.81-1.66-2.743a1382 1382 0 0 0-3.295-5.403l-1.517-2.499-1.37-2.237C159 251 159 251 159 249h-2c-1.768 3.825-2.266 6.874-2.319 11.075l-.06 3.69-.035 3.848-.054 3.56c-.063 4.38-.109 8.76-.157 13.14L154 314H76z"/><path fill="#5F236D" d="M308 124h1v187h2l-1 3h-2z"/><path fill="#733386" d="m166 162 1 3c2.015.733 2.015.733 4 1l-3 1-1 3-2.437.813c-2.894.974-2.894.974-3.688 4.25L160 178l-3 1-1 2h-5l1-3 1 1c.603-.808 1.207-1.616 1.828-2.45l2.422-3.238 2.39-3.199A325 325 0 0 1 166 162"/><path fill="#8A5494" d="M243 249c3.214 3.868 5.985 7.896 8.688 12.125l1.22 1.879c1.699 2.646 3.093 5 4.092 7.996-3.355-1.388-5.15-2.856-7-6v-4l-3-1a90 90 0 0 1-2-4l-2-1z"/><path fill="#6E307E" d="m236 170 3 1-1.207 1.793c-3.395 5.057-3.395 5.057-6.543 10.27L230 185h-2l-2 4-2-2 2-3h2l2-6h2v-2h2v-5z"/><path fill="#92559D" d="M279 305c2.716 3.154 3.968 4.874 5 9h-21v-1l14-1v-2h2z"/><path fill="#803E91" d="m420 218 2 8h-2l-1 3-3-1-1 2-2-1 1.023-1.39c3.34-4.592 3.34-4.592 5.977-9.61"/><path fill="#76368C" d="M221 215c1.5 1.313 1.5 1.313 3 3v3h2l-1 2-3-2-3 2-2-5 4-1z"/><path fill="#844693" d="M492 176c1.801 2.702 3.002 4.93 4 8l-1 3v-2h-5l-1-6h2l1 1z"/><path fill="#6E2E84" d="m456 295 1 3 2 1c-6.75 4-6.75 4-9 4v-3h3l-1-3z"/><path fill="#763985" d="M412 175c2.313 1.063 2.313 1.063 4 2l-1 4-2.75-1.875c-2.4-1.569-4.66-2.93-7.25-4.125 2.722-1.361 4.093-.761 7 0"/><path fill="#6F357F" d="M236 240h2a125 125 0 0 1 4 6l-2 4-1-3-3-1c-.75-1.937-.75-1.937-1-4z"/><path fill="#803F91" d="M190 131a85 85 0 0 1 2 7c-4.625 2.125-4.625 2.125-8 1z"/><path fill="#793B87" d="m157 248 7 1-1 4 2 1h-2l-1 2c-3-4.75-3-4.75-3-7z"/><path fill="#773C83" d="m198 123 1 2-4 6-4-1c4.75-5.875 4.75-5.875 7-7"/><path fill="#7C4287" d="M250 261c2.6 2.51 4.99 4.986 7 8v2c-3.355-1.388-5.15-2.856-7-6z"/><path fill="#753A82" d="m409 233 1 4c-1.75 1.563-1.75 1.563-4 3-2.25-.312-2.25-.312-4-1h2v-2a105 105 0 0 1 5-4"/><path fill="#723087" d="M483 158c2.063 2.25 2.063 2.25 4 5-.25 2.313-.25 2.313-1 4h-2c-2.092-4.43-2.092-4.43-1.625-7.312z"/><path fill="#81468C" d="M496 193h2l1 11c-2.398-2.398-2.343-3.333-2.625-6.625l-.227-2.477z"/><path fill="#763B86" d="m252 149 4 1-5 7c-1-4-1-4-.062-6.25z"/><path fill="#672289" d="M308 123c3.375-.125 3.375-.125 7 0l2 2-2.875.938c-2.986.936-2.986.936-5.125 2.062z"/><path fill="#7B4687" d="M259 141h3v2h-2l-.875 1.875C258 147 258 147 256 149l1-6h2z"/><path fill="#95629F" d="M488 263h1c-.615 6.523-.615 6.523-2.562 8.938-.475.35-.95.7-1.438 1.062l-1-6h4z"/><path fill="#865095" d="m229 181 1 4h-2l-2 4-2-2 2-3h2z"/><path fill="#9157A1" d="M491 253h4l-2 7c-2.133-2.133-2.532-3.1-3-6z"/><path fill="#794089" d="M386 177h4v2a125 125 0 0 1-6 4c0-3 0-3 2-6"/><path fill="#824C90" d="M473 145h2c1.688 1.813 1.688 1.813 3 4l-1 3-3-1z"/><path fill="#6C2C7E" d="M464 137c3.161 1.37 3.993 1.99 6 5l-6-1z"/></svg>